<?xml version="1.0" encoding="utf-8"?>
<!-- Generator: Adobe Illustrator 28.7.1, SVG Export Plug-In . SVG Version: 9.03 Build 54978)  -->
<svg version="1.1" id="Lager_1" xmlns="http://www.w3.org/2000/svg" xmlns:xlink="http://www.w3.org/1999/xlink" x="0px" y="0px"
	 viewBox="0 0 400 200" style="enable-background:new 0 0 400 200;" xml:space="preserve">
<style type="text/css">
	.st0{fill:#444444;}
	.st1{stroke:#000000;stroke-width:10;stroke-linejoin:round;stroke-miterlimit:10;}
	.st2{fill:#D8D8D8;}
	.st3{fill:#9E9E9E;}
	.st4{fill:#161616;}
	.st5{fill:#F7F7F7;}
	.st6{fill:#EAEAEA;}
</style>
<g>
	<g>
		<path d="M59.77,72.87c0.97,0.18,1.5,0.7,1.32,1.85l-0.88,5.55c-0.18,0.97-0.62,1.41-1.5,1.41H41.45c-13.74,0-17,5.46-19.91,24.22
			c-3,18.76-1.5,24.31,12.24,24.31h17.18c0.88,0,1.23,0.44,1.15,1.32l-0.88,5.55c-0.18,1.15-0.88,1.76-2.03,1.94
			c-4.4,0.7-10.31,1.06-17,1.06c-21.93,0-26.25-7.84-22.11-34.18c4.14-26.42,10.92-34.09,32.94-34.09
			C49.73,71.81,55.45,72.08,59.77,72.87z"/>
		<path d="M81.25,72.25c0.88,0,1.23,0.44,1.14,1.32l-8.9,56.19h30.48c0.88,0,1.23,0.44,1.06,1.32l-1.14,7.22
			c-0.09,0.88-0.62,1.32-1.5,1.32H61.87c-0.88,0-1.23-0.44-1.06-1.32l10.22-64.74c0.09-0.88,0.62-1.32,1.5-1.32H81.25z"/>
		<path d="M168.27,106.07c-4.14,26.25-11.1,34-33.12,34c-21.93,0-26.34-7.75-22.2-34c4.14-26.42,11.1-34.26,33.03-34.26
			C168,71.81,172.41,79.65,168.27,106.07z M124.32,106.07c-2.99,18.59-1.32,24.13,12.42,24.13c13.74,0,17.18-5.55,20.08-24.13
			c3.08-18.76,1.41-24.4-12.33-24.4C130.75,81.68,127.31,87.31,124.32,106.07z"/>
		<path d="M233.35,72.25c0.97,0,1.32,0.26,0.88,1.41l-23.43,56.02c-3.96,9.25-5.37,10.39-15.15,10.39c-9.16,0-10.3-1.06-11.27-10.39
			l-6.25-56.02c-0.09-1.15,0.27-1.41,1.23-1.41h8.98c0.79,0,0.79,0.26,0.97,1.41l5.81,53.29c0.35,3.08,0.53,3.7,2.03,3.7
			c1.94,0,2.29-0.62,3.61-3.7l22.2-53.29c0.44-1.15,0.62-1.41,1.41-1.41H233.35z"/>
		<path d="M253.16,72.25c0.88,0,1.23,0.44,1.14,1.32l-10.22,64.65c-0.18,0.97-0.7,1.41-1.58,1.41h-8.63c-0.88,0-1.23-0.44-1.14-1.41
			l10.3-64.65c0.09-0.88,0.62-1.32,1.5-1.32H253.16z"/>
	</g>
	<g>
		<path class="st0" d="M245.61,165.68c-0.82,5.34-2.82,8.81-6.58,9.69l-0.06,0.12c4.81,0.94,5.4,5.64,4.58,10.45
			c-1.53,9.75-7.28,11.86-16.03,11.86c-2.35,0-12.27-0.06-15.62-0.24c-0.41,0-0.53-0.12-0.47-0.53l6.75-42.57
			c0.06-0.41,0.18-0.53,0.59-0.53c3.41-0.18,11.51-0.23,13.92-0.23C242.2,153.7,247.08,156.17,245.61,165.68z M217.84,176.9
			l-2.82,18.03h13.1c6.87,0,11.04-1.59,12.21-8.98c1.12-7.22-1.94-9.04-7.93-9.04H217.84z M221.07,156.58l-2.82,17.5h12.27
			c7.34,0,10.63-0.88,11.8-8.22c1.23-7.57-2.58-9.28-10.28-9.28H221.07z"/>
		<path class="st0" d="M283.71,167.33c-1.59,9.75-4.58,12.45-12.21,13.21l7.69,16.27c0.18,0.35,0,0.7-0.53,0.7h-2
			c-0.76,0-0.94-0.24-1.23-0.76l-7.57-15.91h-11.51l-2.58,16.15c-0.06,0.41-0.23,0.53-0.65,0.53h-2.11c-0.41,0-0.59-0.12-0.47-0.59
			l6.75-42.45c0.06-0.41,0.18-0.53,0.59-0.53c3.41-0.18,7.81-0.23,10.16-0.23C281.48,153.7,285.65,154.94,283.71,167.33z
			 M260.17,156.58l-3.41,21.32h7.22c11.45,0,14.86-0.47,16.5-10.51c1.58-9.98-1.7-10.8-13.1-10.8H260.17z"/>
		<path class="st0" d="M312.83,160.4l4.41,36.52c0.06,0.53,0,0.59-0.53,0.59h-2.35c-0.29,0-0.41-0.12-0.41-0.53l-1.82-14.15H293.1
			l-6.28,14.15c-0.18,0.41-0.24,0.53-0.59,0.53h-2.41c-0.41,0-0.53-0.12-0.35-0.59l16.21-36.52c2.53-5.81,3.29-6.69,7.58-6.69
			C311.72,153.7,312.13,154.59,312.83,160.4z M302.62,161.16l-8.22,18.73h17.44l-2.23-18.73c-0.47-3.93-0.65-4.58-2.88-4.58
			C304.73,156.58,304.32,157.23,302.62,161.16z"/>
		<path class="st0" d="M357.75,154c0.47,0,0.7,0.24,0.29,0.76l-20.61,30.12l-1.94,12.1c-0.06,0.35-0.29,0.53-0.65,0.53h-2.17
			c-0.35,0-0.53-0.18-0.47-0.59l1.94-12.04l-11.1-30.12c-0.24-0.53,0-0.76,0.53-0.76h2.35c0.47,0,0.65,0.12,0.82,0.59l9.63,26.48
			l18.03-26.54c0.24-0.35,0.47-0.53,0.94-0.53H357.75z"/>
	</g>
	<path class="st1" d="M345.57,106.54c5.99,13.48,8.81,28.38-29.35,28.38c-9.09,0-20.4-3.58-27.95-7.36
		c-1.96-0.98,6.37-7.36,6.37-7.36s13.72,11.35,22.55,11.78c20.55,0.98,28.38-25.44,7.83-34.25c-9.73-4.17-27.83-8.71-24-13.32
		c5.28-6.34,19.5-8.44,13.06-5.1C297.59,87.85,339.63,93.18,345.57,106.54z"/>
	<g>
		<path class="st2" d="M322.58,3.31c31.17,5.45,49.78,23.53,59.77,46.52c4.88,11.22,7.71,23.62,8.93,36.27
			c0.53,5.51-5.1,23.62-5.1,28.76c0,7.83-6.85,13.7-13.7,19.57c-0.59,0.5-1.17,0.99-1.75,1.45c-14.31,11.39-27.69,11.27-55,11.27
			c-14.83,0-29.03-3.84-41.13-10.67c-1.7-0.96,6.81-22.08,15.69-13.8c14.68,13.7,30.33,20.55,40.12,14.68
			c35.68-21.41,0.98-53.82-27.4-50.88c-0.3,0.03-0.61-0.05-0.9-0.06c-14.68-0.91-16.5,6.95-20.23,13.71
			c-2.02,3.62-4.56,6.93-9.94,8.39c-0.68,0.19-1.42,0.34-2.2,0.47c-9.3,1.47-2.09-32.89-4.89-42.08c-1.85-6.1-31.31,0.95-31.31-5.87
			c0-10.08,3.31-19.25,8.89-27.19l0.03-0.03c1.09-1.57,2.28-3.08,3.55-4.55c2.04-2.36,4.29-4.59,6.7-6.66
			C270.82,6.97,298.7-0.87,322.58,3.31"/>
	</g>
	<path class="st1" d="M310.84,88.44c-7.84-1.75-14.89-8.98-15.87-15.83c-0.71-4.94,1.96-7.83,6.85-11.74
		c4.71-3.77,26.14-14.02,26.14-14.02s-5.87-5.87-14.19-6.36c-14.57-0.86-25.13,10.5-25.96,25.07
		c-0.95,16.52,11.77,25.32,29.39,28.26"/>
	<path class="st3" d="M340.19,89.42c20.38,3.22,31.48,9.67,31.31,15.66c-0.33,11.9,1.96,17.61-0.77,30.8
		c-14.31,11.39-27.69,11.27-55,11.27c-14.83,0-29.03-3.84-41.13-10.67c-1.7-0.96,6.77-22.03,15.69-13.8
		c12.72,11.74,31.28,19.77,45.01,7.83c8.44-7.34,8.63-22.02,3.91-28.38c-7.86-10.6-28.87-15.04-36.21-15.66"/>
	<path class="st4" d="M376.54,70.88l-18.25-5.87c-1.41-0.45-2.63-1.56-3.44-3.11l-0.67-1.28c-0.77-1.49,0.06-3.49,1.45-3.49h18.4
		c3.47,0,6.28,3.61,6.28,8.07v1.89C380.31,69.63,378.46,71.49,376.54,70.88z"/>
	<circle class="st5" cx="313.28" cy="66.42" r="22.02"/>
	<path class="st6" d="M322.58,3.31c31.17,5.45,49.78,23.53,59.77,46.52C332.16,16.39,255.06,21.9,255.06,21.9
		c-0.76,0-1.56,0.25-2.35,0.7C270.82,6.97,298.7-0.87,322.58,3.31"/>
</g>
</svg>
