<?xml version="1.0" encoding="UTF-8"?>
<svg xmlns="http://www.w3.org/2000/svg" version="1.1" viewBox="0 0 400 200">
  <defs>
    <style>
      .cls-1 {
        stroke: #000;
        stroke-linejoin: round;
        stroke-width: 8px;
      }

      .cls-2 {
        fill: #d8d8d8;
      }

      .cls-3 {
        fill: #444;
      }

      .cls-4 {
        fill: #333;
      }

      .cls-5 {
        fill: #9e9e9e;
      }

      .cls-6 {
        fill: #eaeaea;
      }

      .cls-7 {
        fill: #f7f7f7;
      }
    </style>
  </defs>
  <!-- Generator: Adobe Illustrator 28.7.1, SVG Export Plug-In . SVG Version: 1.2.0 Build 142)  -->
  <g>
    <g id="Lager_2">
      <g>
        <g>
          <path d="M70.2,74.9c.9.2,1.4.7,1.2,1.7l-.8,5.1c-.2.9-.6,1.3-1.4,1.3h-16c-12.7,0-15.7,5-18.4,22.4-2.8,17.4-1.4,22.5,11.3,22.5h15.9c.8,0,1.1.4,1.1,1.2l-.8,5.1c-.2,1.1-.8,1.6-1.9,1.8-4.1.7-9.5,1-15.7,1-20.3,0-24.3-7.2-20.4-31.6,3.8-24.4,10.1-31.5,30.5-31.5,6.2,0,11.5.2,15.5,1Z"/>
          <path d="M90.1,74.3c.8,0,1.1.4,1.1,1.2l-8.2,52h28.2c.8,0,1.1.4,1,1.2l-1.1,6.7c0,.8-.6,1.2-1.4,1.2h-37.5c-.8,0-1.1-.4-1-1.2l9.5-59.9c0-.8.6-1.2,1.4-1.2h8.1Z"/>
          <path d="M170.6,105.6c-3.8,24.3-10.3,31.4-30.6,31.4s-24.4-7.2-20.5-31.4c3.8-24.4,10.3-31.7,30.5-31.7s24.4,7.2,20.6,31.7ZM129.9,105.6c-2.8,17.2-1.2,22.3,11.5,22.3s15.9-5.1,18.6-22.3c2.9-17.4,1.3-22.6-11.4-22.6-12.7,0-15.9,5.2-18.6,22.6Z"/>
          <path d="M230.8,74.3c.9,0,1.2.2.8,1.3l-21.7,51.8c-3.7,8.6-5,9.6-14,9.6s-9.5-1-10.4-9.6l-5.8-51.8c0-1.1.2-1.3,1.1-1.3h8.3c.7,0,.7.2.9,1.3l5.4,49.3c.3,2.9.5,3.4,1.9,3.4s2.1-.6,3.3-3.4l20.5-49.3c.4-1.1.6-1.3,1.3-1.3,0,0,8.3,0,8.3,0Z"/>
          <path d="M249.1,74.3c.8,0,1.1.4,1.1,1.2l-9.5,59.8c-.2.9-.7,1.3-1.5,1.3h-8c-.8,0-1.1-.4-1.1-1.3l9.5-59.8c0-.8.6-1.2,1.4-1.2h8Z"/>
        </g>
        <g>
          <path class="cls-3" d="M242.1,160.7c-.8,4.9-2.6,8.1-6.1,9h0c4.5,1,5,5.3,4.2,9.8-1.4,9-6.7,11-14.8,11s-11.3,0-14.4-.2c-.4,0-.5-.1-.4-.5l6.3-39.4c0-.4.2-.5.5-.5,3.2-.2,10.6-.2,12.9-.2,8.8,0,13.3,2.3,11.9,11.1ZM216.4,171.1l-2.6,16.7h12.1c6.4,0,10.2-1.5,11.3-8.3,1-6.7-1.8-8.4-7.3-8.4h-13.5ZM219.4,152.3l-2.6,16.2h11.3c6.8,0,9.8-.8,10.9-7.6,1.1-7-2.4-8.6-9.5-8.6h-10.2Z"/>
          <path class="cls-3" d="M277.4,162.3c-1.5,9-4.2,11.5-11.3,12.2l7.1,15.1c.2.3,0,.7-.5.7h-1.8c-.7,0-.9-.2-1.1-.7l-7-14.7h-10.6l-2.4,14.9c0,.4-.2.5-.6.5h-2c-.4,0-.5-.1-.4-.5l6.3-39.3c0-.4.2-.5.5-.5,3.2-.2,7.2-.2,9.4-.2,12.4,0,16.3,1.1,14.5,12.6ZM255.6,152.3l-3.2,19.7h6.7c10.6,0,13.7-.4,15.3-9.7,1.5-9.2-1.6-10-12.1-10,0,0-6.7,0-6.7,0Z"/>
          <path class="cls-3" d="M304.3,155.9l4.1,33.8c0,.5,0,.5-.5.5h-2.2c-.3,0-.4-.1-.4-.5l-1.7-13.1h-17.6l-5.8,13.1c-.2.4-.2.5-.5.5h-2.2c-.4,0-.5-.1-.3-.5l15-33.8c2.3-5.4,3-6.2,7-6.2,4.1,0,4.5.8,5.2,6.2ZM294.8,156.6l-7.6,17.3h16.1l-2.1-17.3c-.4-3.6-.6-4.2-2.7-4.2-1.8,0-2.2.6-3.8,4.2Z"/>
          <path class="cls-3" d="M345.8,149.9c.4,0,.7.2.3.7l-19.1,27.9-1.8,11.2c0,.3-.3.5-.6.5h-2c-.3,0-.5-.2-.4-.5l1.8-11.1-10.3-27.9c-.2-.5,0-.7.5-.7h2.2c.4,0,.6.1.8.5l8.9,24.5,16.7-24.6c.2-.3.4-.5.9-.5h2.2Z"/>
        </g>
        <path class="cls-1" d="M334.6,106.1c5.5,12.5,8.1,26.2-27.1,26.2s-18.9-3.3-25.8-6.8c-1.8-.9,5.9-6.8,5.9-6.8,0,0,12.7,10.5,20.9,10.9,19,.9,26.2-23.5,7.2-31.7-9-3.9-25.7-8.1-22.2-12.3,4.9-5.9,18-7.8,12.1-4.7-15.3,7.9,23.6,12.8,29.1,25.2Z"/>
        <path class="cls-2" d="M372.1,113.7c0,7.2-6.3,12.7-12.7,18.1-.5.5-1.1.9-1.6,1.3-13.2,10.5-25.6,10.4-50.9,10.4s-26.9-3.6-38-9.9c-1.6-.9,6.3-20.4,14.5-12.8,13.6,12.7,28.1,19,37.1,13.6,33-19.8.9-49.8-25.3-47.1-.3,0-.6,0-.8,0-13.6-.8-15.3,6.4-18.7,12.7-1.9,3.4-4.2,6.4-9.2,7.8-.6.2-1.3.3-2,.4-8.6,1.4-1.9-30.4-4.5-38.9-1.7-5.6-29,.9-29-5.4,0-9.3,3.1-17.8,8.2-25.1h0c1-1.5,2.1-2.9,3.3-4.2,1.9-2.2,4-4.2,6.2-6.2,16.8-14.5,42.5-21.7,64.6-17.8,28.8,5,46,21.8,55.3,43,4.5,10.4,7.1,21.9,8.3,33.5.5,5.1-4.7,21.9-4.7,26.6Z"/>
        <path class="cls-1" d="M302.4,89.3c-7.2-1.6-13.8-8.3-14.7-14.6-.7-4.6,1.8-7.2,6.3-10.9,4.4-3.5,24.2-13,24.2-13,0,0-5.4-5.4-13.1-5.9-13.5-.8-23.2,9.7-24,23.2-.9,15.3,10.9,23.4,27.2,26.1"/>
        <path class="cls-5" d="M329.6,90.2c18.8,3,29.1,9,29,14.5-.3,11,1.8,16.3-.7,28.5-13.2,10.5-25.6,10.4-50.9,10.4s-26.9-3.6-38-9.9c-1.6-.9,6.3-20.4,14.5-12.8,11.8,10.9,28.9,18.3,41.6,7.2,7.8-6.8,8-20.4,3.6-26.2-7.3-9.8-26.7-13.9-33.5-14.5"/>
        <path class="cls-4" d="M363.2,73.1l-16.9-5.4c-1.3-.4-2.4-1.4-3.2-2.9l-.6-1.2c-.7-1.4,0-3.2,1.3-3.2h17c3.2,0,5.8,3.3,5.8,7.5v1.8c0,2.4-1.7,4.1-3.5,3.5Z"/>
        <circle class="cls-7" cx="304.7" cy="68.9" r="20.4"/>
        <path class="cls-6" d="M368.6,53.6c-46.4-30.9-117.7-25.8-117.7-25.8-.7,0-1.4.2-2.2.7,16.8-14.5,42.5-21.7,64.6-17.8,28.8,5,46,21.8,55.3,43Z"/>
      </g>
    </g>
  </g>
</svg>