<?xml version="1.0" encoding="UTF-8"?>
<svg xmlns="http://www.w3.org/2000/svg" version="1.1" xmlns:xlink="http://www.w3.org/1999/xlink" viewBox="0 0 600 600">
  <defs>
    <style>
      .cls-1 {
        clip-path: url(#clippath-51);
      }

      .cls-2 {
        clip-path: url(#clippath-34);
      }

      .cls-3 {
        clip-path: url(#clippath-38);
      }

      .cls-4 {
        clip-path: url(#clippath-21);
      }

      .cls-5, .cls-6, .cls-7, .cls-8, .cls-9, .cls-10, .cls-11 {
        stroke-linejoin: round;
      }

      .cls-5, .cls-6, .cls-7, .cls-9 {
        stroke-width: 9px;
      }

      .cls-5, .cls-12, .cls-13, .cls-9, .cls-11 {
        fill: #fff;
      }

      .cls-5, .cls-13, .cls-11 {
        stroke: #fff;
      }

      .cls-14 {
        clip-path: url(#clippath-6);
      }

      .cls-15 {
        clip-path: url(#clippath-7);
      }

      .cls-16 {
        clip-path: url(#clippath-17);
      }

      .cls-17 {
        clip-path: url(#clippath-31);
      }

      .cls-6, .cls-9 {
        stroke: #999;
      }

      .cls-6, .cls-18 {
        fill: gray;
      }

      .cls-19 {
        clip-path: url(#clippath-15);
      }

      .cls-20 {
        clip-path: url(#clippath-33);
      }

      .cls-21 {
        clip-path: url(#clippath-61);
      }

      .cls-22 {
        clip-path: url(#clippath-18);
      }

      .cls-23 {
        clip-path: url(#clippath-47);
      }

      .cls-24 {
        clip-path: url(#clippath-4);
      }

      .cls-25 {
        clip-path: url(#clippath-22);
      }

      .cls-26 {
        clip-path: url(#clippath-23);
      }

      .cls-27 {
        clip-path: url(#clippath-54);
      }

      .cls-28 {
        clip-path: url(#clippath-9);
      }

      .cls-29 {
        fill: #4d4d4d;
      }

      .cls-30 {
        clip-path: url(#clippath-10);
      }

      .cls-31, .cls-13 {
        stroke-width: 3px;
      }

      .cls-31, .cls-13, .cls-32 {
        stroke-miterlimit: 10;
      }

      .cls-31, .cls-7, .cls-8, .cls-10, .cls-32 {
        stroke: #000;
      }

      .cls-33 {
        clip-path: url(#clippath-42);
      }

      .cls-34 {
        clip-path: url(#clippath-59);
      }

      .cls-35 {
        clip-path: url(#clippath-43);
      }

      .cls-36 {
        clip-path: url(#clippath-25);
      }

      .cls-37 {
        clip-path: url(#clippath-27);
      }

      .cls-38 {
        clip-path: url(#clippath-60);
      }

      .cls-39 {
        fill: #f47856;
      }

      .cls-40 {
        clip-path: url(#clippath-11);
      }

      .cls-41 {
        clip-path: url(#clippath-57);
      }

      .cls-42, .cls-32 {
        fill: none;
      }

      .cls-8, .cls-11 {
        stroke-width: 8px;
      }

      .cls-43 {
        clip-path: url(#clippath-36);
      }

      .cls-44 {
        clip-path: url(#clippath-35);
      }

      .cls-45 {
        clip-path: url(#clippath-48);
      }

      .cls-46 {
        clip-path: url(#clippath-28);
      }

      .cls-47 {
        clip-path: url(#clippath-1);
      }

      .cls-48 {
        clip-path: url(#clippath-56);
      }

      .cls-49 {
        fill: #f2f2f2;
      }

      .cls-10 {
        stroke-width: 6px;
      }

      .cls-50 {
        clip-path: url(#clippath-45);
      }

      .cls-51 {
        clip-path: url(#clippath-46);
      }

      .cls-52 {
        clip-path: url(#clippath-40);
      }

      .cls-53 {
        clip-path: url(#clippath-5);
      }

      .cls-54 {
        clip-path: url(#clippath-20);
      }

      .cls-55 {
        fill: #d8d8d8;
      }

      .cls-56 {
        clip-path: url(#clippath-8);
      }

      .cls-57 {
        clip-path: url(#clippath-52);
      }

      .cls-58 {
        fill: #666;
      }

      .cls-59 {
        clip-path: url(#clippath-41);
      }

      .cls-60 {
        fill: #9febff;
      }

      .cls-61, .cls-62 {
        fill: #444;
      }

      .cls-63 {
        clip-path: url(#clippath-3);
      }

      .cls-64 {
        clip-path: url(#clippath-26);
      }

      .cls-65 {
        clip-path: url(#clippath-12);
      }

      .cls-66 {
        clip-path: url(#clippath-50);
      }

      .cls-67 {
        clip-path: url(#clippath-14);
      }

      .cls-68 {
        fill: #333;
      }

      .cls-69 {
        clip-path: url(#clippath-30);
      }

      .cls-70 {
        clip-path: url(#clippath-19);
      }

      .cls-71 {
        fill: #595959;
      }

      .cls-72 {
        fill: #1a1a1a;
      }

      .cls-73 {
        fill: #999;
      }

      .cls-74 {
        fill: #9e9e9e;
      }

      .cls-32 {
        stroke-width: 4px;
      }

      .cls-75 {
        clip-path: url(#clippath-32);
      }

      .cls-76 {
        display: none;
      }

      .cls-77 {
        clip-path: url(#clippath-55);
      }

      .cls-62 {
        font-family: UniviaProLight-Italic, 'Univia Pro';
        font-size: 63.8px;
      }

      .cls-62, .cls-78 {
        font-style: italic;
        isolation: isolate;
      }

      .cls-79 {
        fill: #ccc;
      }

      .cls-80 {
        clip-path: url(#clippath-53);
      }

      .cls-81 {
        fill: #f4f4f4;
      }

      .cls-82 {
        fill: #b3b3b3;
      }

      .cls-83 {
        clip-path: url(#clippath-39);
      }

      .cls-84 {
        clip-path: url(#clippath-16);
      }

      .cls-85 {
        clip-path: url(#clippath-2);
      }

      .cls-86 {
        clip-path: url(#clippath-29);
      }

      .cls-78 {
        font-family: UniviaProMedium-Italic, 'Univia Pro';
        font-size: 95.7px;
      }

      .cls-87 {
        clip-path: url(#clippath-49);
      }

      .cls-88 {
        clip-path: url(#clippath-37);
      }

      .cls-89 {
        clip-path: url(#clippath-58);
      }

      .cls-90 {
        clip-path: url(#clippath-13);
      }

      .cls-91 {
        fill: #eaeaea;
      }

      .cls-92 {
        clip-path: url(#clippath-24);
      }

      .cls-93 {
        clip-path: url(#clippath);
      }

      .cls-94 {
        fill: #f7f7f7;
      }

      .cls-95 {
        clip-path: url(#clippath-44);
      }

      .cls-96 {
        fill: #161616;
      }

      .cls-97 {
        fill: #e6e6e6;
      }
    </style>
    <clipPath id="clippath">
      <rect class="cls-42" x="50.6" y="358.7" width="89.6" height="212.3"/>
    </clipPath>
    <clipPath id="clippath-1">
      <rect class="cls-42" x="50.6" y="358.7" width="89.6" height="212.3"/>
    </clipPath>
    <clipPath id="clippath-2">
      <rect class="cls-42" x="50.6" y="358.7" width="89.6" height="212.3"/>
    </clipPath>
    <clipPath id="clippath-3">
      <rect class="cls-42" x="50.6" y="358.7" width="89.6" height="212.3"/>
    </clipPath>
    <clipPath id="clippath-4">
      <rect class="cls-42" x="50.6" y="358.7" width="89.6" height="212.3"/>
    </clipPath>
    <clipPath id="clippath-5">
      <rect class="cls-42" x="50.6" y="358.7" width="89.6" height="212.3"/>
    </clipPath>
    <clipPath id="clippath-6">
      <rect class="cls-42" x="140.2" y="358.7" width="89.6" height="212.3"/>
    </clipPath>
    <clipPath id="clippath-7">
      <rect class="cls-42" x="140.2" y="358.7" width="89.6" height="212.3"/>
    </clipPath>
    <clipPath id="clippath-8">
      <rect class="cls-42" x="140.2" y="358.7" width="89.6" height="212.3"/>
    </clipPath>
    <clipPath id="clippath-9">
      <rect class="cls-42" x="140.2" y="358.7" width="89.6" height="212.3"/>
    </clipPath>
    <clipPath id="clippath-10">
      <rect class="cls-42" x="140.2" y="358.7" width="89.6" height="212.3"/>
    </clipPath>
    <clipPath id="clippath-11">
      <rect class="cls-42" x="140.2" y="358.7" width="89.6" height="212.3"/>
    </clipPath>
    <clipPath id="clippath-12">
      <rect class="cls-42" x="383" y="351" width="89.6" height="212.3"/>
    </clipPath>
    <clipPath id="clippath-13">
      <rect class="cls-42" x="383" y="351" width="89.6" height="212.3"/>
    </clipPath>
    <clipPath id="clippath-14">
      <rect class="cls-42" x="383" y="351" width="89.6" height="212.3"/>
    </clipPath>
    <clipPath id="clippath-15">
      <rect class="cls-42" x="383" y="351" width="89.6" height="212.3"/>
    </clipPath>
    <clipPath id="clippath-16">
      <rect class="cls-42" x="383" y="351" width="89.6" height="212.3"/>
    </clipPath>
    <clipPath id="clippath-17">
      <rect class="cls-42" x="383" y="351" width="89.6" height="212.3"/>
    </clipPath>
    <clipPath id="clippath-18">
      <rect class="cls-42" x="383" y="351" width="89.6" height="212.3"/>
    </clipPath>
    <clipPath id="clippath-19">
      <rect class="cls-42" x="383" y="351" width="89.6" height="212.3"/>
    </clipPath>
    <clipPath id="clippath-20">
      <rect class="cls-42" x="383" y="351" width="89.6" height="212.3"/>
    </clipPath>
    <clipPath id="clippath-21">
      <rect class="cls-42" x="383" y="351" width="89.6" height="212.3"/>
    </clipPath>
    <clipPath id="clippath-22">
      <rect class="cls-42" x="383" y="351" width="89.6" height="212.3"/>
    </clipPath>
    <clipPath id="clippath-23">
      <rect class="cls-42" x="383" y="351" width="89.6" height="212.3"/>
    </clipPath>
    <clipPath id="clippath-24">
      <rect class="cls-42" x="383" y="351" width="89.6" height="212.3"/>
    </clipPath>
    <clipPath id="clippath-25">
      <rect class="cls-42" x="472.6" y="351" width="89.6" height="212.3"/>
    </clipPath>
    <clipPath id="clippath-26">
      <rect class="cls-42" x="472.6" y="351" width="89.6" height="212.3"/>
    </clipPath>
    <clipPath id="clippath-27">
      <rect class="cls-42" x="472.6" y="351" width="89.6" height="212.3"/>
    </clipPath>
    <clipPath id="clippath-28">
      <rect class="cls-42" x="472.6" y="351" width="89.6" height="212.3"/>
    </clipPath>
    <clipPath id="clippath-29">
      <rect class="cls-42" x="472.6" y="351" width="89.6" height="212.3"/>
    </clipPath>
    <clipPath id="clippath-30">
      <rect class="cls-42" x="472.6" y="351" width="89.6" height="212.3"/>
    </clipPath>
    <clipPath id="clippath-31">
      <rect class="cls-42" x="472.6" y="351" width="89.6" height="212.3"/>
    </clipPath>
    <clipPath id="clippath-32">
      <rect class="cls-42" x="472.6" y="351" width="89.6" height="212.3"/>
    </clipPath>
    <clipPath id="clippath-33">
      <rect class="cls-42" x="472.6" y="351" width="89.6" height="212.3"/>
    </clipPath>
    <clipPath id="clippath-34">
      <rect class="cls-42" x="472.6" y="351" width="89.6" height="212.3"/>
    </clipPath>
    <clipPath id="clippath-35">
      <rect class="cls-42" x="472.6" y="351" width="89.6" height="212.3"/>
    </clipPath>
    <clipPath id="clippath-36">
      <rect class="cls-42" x="472.6" y="351" width="89.6" height="212.3"/>
    </clipPath>
    <clipPath id="clippath-37">
      <rect class="cls-42" x="472.6" y="351" width="89.6" height="212.3"/>
    </clipPath>
    <clipPath id="clippath-38">
      <rect class="cls-42" x="51.5" y="29.8" width="89.6" height="212.3"/>
    </clipPath>
    <clipPath id="clippath-39">
      <rect class="cls-42" x="51.5" y="29.8" width="89.6" height="212.3"/>
    </clipPath>
    <clipPath id="clippath-40">
      <rect class="cls-42" x="51.5" y="29.8" width="89.6" height="212.3"/>
    </clipPath>
    <clipPath id="clippath-41">
      <rect class="cls-42" x="51.5" y="29.8" width="89.6" height="212.3"/>
    </clipPath>
    <clipPath id="clippath-42">
      <rect class="cls-42" x="51.5" y="29.8" width="89.6" height="212.3"/>
    </clipPath>
    <clipPath id="clippath-43">
      <rect class="cls-42" x="51.5" y="29.8" width="89.6" height="212.3"/>
    </clipPath>
    <clipPath id="clippath-44">
      <rect class="cls-42" x="51.5" y="29.8" width="89.6" height="212.3"/>
    </clipPath>
    <clipPath id="clippath-45">
      <rect class="cls-42" x="51.5" y="29.8" width="89.6" height="212.3"/>
    </clipPath>
    <clipPath id="clippath-46">
      <rect class="cls-42" x="51.5" y="29.8" width="89.6" height="212.3"/>
    </clipPath>
    <clipPath id="clippath-47">
      <rect class="cls-42" x="51.5" y="29.8" width="89.6" height="212.3"/>
    </clipPath>
    <clipPath id="clippath-48">
      <rect class="cls-42" x="51.5" y="29.8" width="89.6" height="212.3"/>
    </clipPath>
    <clipPath id="clippath-49">
      <rect class="cls-42" x="51.5" y="29.8" width="89.6" height="212.3"/>
    </clipPath>
    <clipPath id="clippath-50">
      <rect class="cls-42" x="141.1" y="29.8" width="89.6" height="212.3"/>
    </clipPath>
    <clipPath id="clippath-51">
      <rect class="cls-42" x="141.1" y="29.8" width="89.6" height="212.3"/>
    </clipPath>
    <clipPath id="clippath-52">
      <rect class="cls-42" x="141.1" y="29.8" width="89.6" height="212.3"/>
    </clipPath>
    <clipPath id="clippath-53">
      <rect class="cls-42" x="141.1" y="29.8" width="89.6" height="212.3"/>
    </clipPath>
    <clipPath id="clippath-54">
      <rect class="cls-42" x="141.1" y="29.8" width="89.6" height="212.3"/>
    </clipPath>
    <clipPath id="clippath-55">
      <rect class="cls-42" x="141.1" y="29.8" width="89.6" height="212.3"/>
    </clipPath>
    <clipPath id="clippath-56">
      <rect class="cls-42" x="141.1" y="29.8" width="89.6" height="212.3"/>
    </clipPath>
    <clipPath id="clippath-57">
      <rect class="cls-42" x="141.1" y="29.8" width="89.6" height="212.3"/>
    </clipPath>
    <clipPath id="clippath-58">
      <rect class="cls-42" x="141.1" y="29.8" width="89.6" height="212.3"/>
    </clipPath>
    <clipPath id="clippath-59">
      <rect class="cls-42" x="141.1" y="29.8" width="89.6" height="212.3"/>
    </clipPath>
    <clipPath id="clippath-60">
      <rect class="cls-42" x="141.1" y="29.8" width="89.6" height="212.3"/>
    </clipPath>
    <clipPath id="clippath-61">
      <rect class="cls-42" x="141.1" y="29.8" width="89.6" height="212.3"/>
    </clipPath>
  </defs>
  <!-- Generator: Adobe Illustrator 28.7.1, SVG Export Plug-In . SVG Version: 1.2.0 Build 142)  -->
  <g>
    <g id="Lager_1" class="cls-76">
      <g id="Lager_1-2" data-name="Lager_1" class="cls-76">
        <path d="M251.3,292.1v-11.7l25.2-7.6c1.9-.6,3.3-1.5,4.4-2.6,1-1.1,1.6-2.9,1.6-5.1V95.8c0-2.2-.6-3.8-1.7-5-1.1-1.1-2.5-2-4.2-2.5l-25.2-7.9v-11.4h94.9v11.4l-25,7.9c-1.7.5-3.1,1.4-4.3,2.6s-1.8,2.8-1.8,4.9v169.2c0,2.3.6,4,1.8,5.2,1.2,1.2,2.6,2,4.3,2.6l25,7.6v11.7h-94.9Z"/>
        <rect class="cls-12" x="51" y="139" width="498" height="83"/>
        <g>
          <path d="M116.8,197.8v4l-4.5,1,1.8-10.7h4.4l-.3,10.4c-4.5,2.4-9.5,3.5-14.6,3.5-14.6,0-24.3-10.5-24.3-25.2s10.2-25.2,24.3-25.2,9,.6,13.9,3.5l.3,10.4h-4.4l-1.8-10.7,4.5,1v4.4c-4.1-3.8-8.1-5-11.6-5-9.7,0-17.6,7.6-17.6,21.6s7.1,21.6,17.1,21.6c4.1,0,8.7-1.2,12.8-4.6Z"/>
          <path d="M124.6,159.6v-2.9h20.2v2.9l-9.4,1.1h-1.4l-9.4-1.1ZM134.7,201v4h-10.1v-2.9l9.4-1.1h.7ZM131.2,156.7h6.9c-.2,7.4-.2,14.9-.2,22.3v5c0,6.1,0,13.6.2,20.9h-6.9c.2-7.4.2-14.9.2-22.3v-3.6c0-7.6,0-15-.2-22.3ZM161.1,191.4l-.7,13.5h-25.7v-3.6h23.2l-4,3.6,2.9-13.5h4.3Z"/>
          <path d="M211.8,180.8c0,15.8-10.8,25.2-22,25.2s-22-8.8-22-25.2,10.9-25.2,22-25.2,22,8.8,22,25.2ZM189.9,202.4c10.1,0,14.4-10.8,14.4-21.6s-4.2-21.6-14.4-21.6-14.5,10.8-14.5,21.6,4.3,21.6,14.5,21.6Z"/>
          <path d="M225.7,160.7l-9.4-1.1v-2.9h19.4v3.2l-8.6.7h-1.4ZM220.6,156.7h6.9l14.4,40.9h-1.5l13.8-40.9h3.9l-16.5,48.8h-2.9l-18.2-48.8ZM253.7,160.7l-7.2-.7v-3.2h16.6v2.9l-8,1.1h-1.4Z"/>
          <path d="M267.1,159.6v-2.9h20.2v2.9l-9.4,1.1h-1.4l-9.4-1.1ZM277.9,201l9.4,1.1v2.9h-20.2v-2.9l9.4-1.1h1.4ZM273.9,179c0-7.4,0-14.9-.2-22.3h6.9c-.2,7.3-.2,14.8-.2,22.3v3.6c0,7.4,0,14.9.2,22.3h-6.9c.2-7.3.2-14.8.2-22.3v-3.6Z"/>
          <path d="M318.5,193.6c0-4.7-2.8-6.8-9.1-9.2l-2.7-1.1c-7.3-2.9-12.4-7.1-12.4-14.4s7-13.3,16.1-13.3,8.6,1.5,11.7,3.8l-.4,9.4h-4.3l-2-10.9,4.6,2.4v3.6c-3.5-3.5-6.2-4.7-10-4.7-5.6,0-9.9,2.8-9.9,8.2s3,7.2,8.2,9.2l2.8,1.1c9.5,3.7,13.2,7.9,13.2,14.6s-7.1,13.7-17,13.7-10.7-1.7-14-3.8l.4-10.1h4.3l1.9,11.1-4.7-2v-3.5c4.5,3.2,6.9,4.7,11.8,4.7,6.8,0,11.4-3.2,11.4-8.8Z"/>
        </g>
        <line class="cls-32" x1="51" y1="139" x2="549" y2="137"/>
        <line class="cls-32" x1="51" y1="224" x2="549" y2="222"/>
      </g>
      <g id="Lager_3" class="cls-76">
        <g>
          <ellipse cx="92.5" cy="456.8" rx="17" ry="16.2"/>
          <ellipse cx="189.8" cy="456.8" rx="17" ry="16.2"/>
          <g>
            <g id="_x3C_Upprepa_Spegla_x3E_">
              <g>
                <g class="cls-93">
                  <path class="cls-49" d="M213.1,437.9c0,39.7-70.9,19.8-76.6,19.8-23.4,0-12.4-19.1-43.5-21.6-16.8-1.3-22.7-1.4-24.6,0-.7.5-.6-4.7,0-9,2.9-21.5,11.4-39.1,24.4-51,12.1-11.1,28.1-17.3,47.5-17.3s35.2,8.2,47.9,21c15.3,15.1,24.9,36.6,24.9,58.2Z"/>
                </g>
                <g class="cls-47">
                  <path class="cls-49" d="M210.3,515.2c0,31.8-41.6,12.6-70,10.8-16.8-1.1-33.9,25.4-18.9,39.6,1.9,1.8,2.2,5.5,1.9,5.4-11.3-5.4-24.6-16.2-32.2-25.2-4.9-5.8,2.4-15.9,7.6-27,6.2-13.3,20.8-14.4,20.8-14.4,0,0-7.6-3.6-11.3-10.8s-3.8-14.4-3.8-14.4c-1.4.9-3.7,1.2-6.4,1.2.9-.4,1.7-.8,2.7-1.2,3.8-1.8,12.8-9.2,15.1-12.6,3.8-5.4,1.9-3.6,3.8-5.4.7-.6,0-23.4-9.5-28.8-3.2-1.9,24.4,23.4,30.3,23.4,38.6,0,70,27.6,70,59.4Z"/>
                </g>
                <g class="cls-85">
                  <path class="cls-49" d="M64.6,455.9c0,17.9,9.5,34.2-1.9,39.6-3.8,1.8-15.1-23.4-11.3-41.4,3.7-17.5,4.8-16.2,9.5-16.2s3.8.1,3.8,18Z"/>
                </g>
                <g class="cls-63">
                  <path class="cls-68" d="M155.4,475.6s-18.9,0-26.7-2.3c0,0-15.3-4.6-14.9-4.9,1.9-1.8,2.9-3.8,3.8-5.4q1.9-3.6,1.9-7.2s11.3,2.9,15.1,3.6c9.5,1.8,20.8-1.8,20.8-1.8v18Z"/>
                </g>
                <g class="cls-24">
                  <path class="cls-68" d="M193.2,396.5c0,21.9-23.7,36-53,36s-11.4,1.8-11.4,1.8c0,0-5.5-16.8-9.5-25.2-10-21.2-20.1-28.7-26.7-33,12.1-11.1,28.1-17.3,47.5-17.3s35.2,8.2,47.9,21c3.2,5.1,5,10.8,5,16.8Z"/>
                </g>
                <g class="cls-53">
                  <path class="cls-73" d="M119.5,504.4s-14,1.4-20.8,14.4c-5.7,10.8-8.2,19.5-7.6,27-1.7-2.2-6-6.6-7.6-9-11.8-17.7-11.3-36.1-11.3-45,0-5.7-2.6-15.8,0-14.4,11.8,6.4,18.4,6,25.7,3,2.8,0,5.1-.3,6.4-1.2,0,0,0,7.2,3.8,14.4s11.4,10.8,11.4,10.8Z"/>
                </g>
              </g>
            </g>
            <g id="_x3C_Upprepa_Spegla_x3E_-2" data-name="_x3C_Upprepa_Spegla_x3E_">
              <g>
                <g class="cls-14">
                  <path class="cls-49" d="M67.3,437.9c0,39.7,70.9,19.8,76.6,19.8,23.4,0,12.4-19.1,43.5-21.6,16.8-1.3,22.7-1.4,24.6,0,.7.5.6-4.7,0-9-2.9-21.5-11.4-39.1-24.4-51-12.1-11.1-28.1-17.3-47.5-17.3s-35.2,8.2-47.9,21c-15.2,15.1-24.9,36.6-24.9,58.2Z"/>
                </g>
                <g class="cls-15">
                  <path class="cls-49" d="M70.2,515.2c0,31.8,41.6,12.6,70,10.8,16.8-1.1,33.9,25.4,18.9,39.6-1.9,1.8-2.2,5.5-1.9,5.4,11.4-5.4,24.6-16.2,32.2-25.2,4.9-5.8-2.4-15.9-7.6-27-6.2-13.3-20.8-14.4-20.8-14.4,0,0,7.6-3.6,11.4-10.8,3.8-7.2,3.8-14.4,3.8-14.4,1.4.9,3.7,1.2,6.4,1.2-.9-.4-1.7-.8-2.6-1.2-3.8-1.8-12.8-9.2-15.1-12.6-3.8-5.4-1.9-3.6-3.8-5.4-.7-.6,0-23.4,9.5-28.8,3.2-1.9-24.4,23.4-30.3,23.4-38.7,0-70,27.6-70,59.4Z"/>
                </g>
                <g class="cls-56">
                  <path class="cls-49" d="M215.8,455.9c0,17.9-9.5,34.2,1.9,39.6,3.8,1.8,15.1-23.4,11.4-41.4-3.7-17.5-4.8-16.2-9.5-16.2s-3.8.1-3.8,18Z"/>
                </g>
                <g class="cls-28">
                  <path class="cls-68" d="M125,475.6s18.9,0,26.7-2.3c0,0,15.3-4.6,14.9-4.9-1.9-1.8-2.9-3.8-3.8-5.4q-1.9-3.6-1.9-7.2s-11.3,2.9-15.1,3.6c-9.5,1.8-20.8-1.8-20.8-1.8,0,0,0,18,0,18Z"/>
                </g>
                <g class="cls-30">
                  <path class="cls-68" d="M87.2,396.5c0,21.9,23.7,36,53,36s11.4,1.8,11.4,1.8c0,0,5.5-16.8,9.5-25.2,10-21.2,20.1-28.7,26.6-33-12.1-11.1-28.1-17.3-47.5-17.3s-35.2,8.2-47.9,21c-3.2,5.1-5,10.8-5,16.8Z"/>
                </g>
                <g class="cls-40">
                  <path class="cls-73" d="M161,504.4s14,1.4,20.8,14.4c5.7,10.8,8.2,19.5,7.6,27,1.7-2.2,6-6.6,7.6-9,11.8-17.7,11.3-36.1,11.4-45,0-5.7,2.6-15.8,0-14.4-11.8,6.4-18.4,6-25.7,3-2.8,0-5.1-.3-6.4-1.2,0,0,0,7.2-3.8,14.4-3.8,7.2-11.4,10.8-11.4,10.8Z"/>
                </g>
              </g>
            </g>
          </g>
          <ellipse class="cls-29" cx="140.3" cy="547.6" rx="17" ry="16.2"/>
          <polygon class="cls-72" points="147.8 497.2 132.7 497.2 130.8 481 149.7 481 147.8 497.2"/>
        </g>
        <g>
          <g id="_x3C_Upprepa_Spegla_x3E_-3" data-name="_x3C_Upprepa_Spegla_x3E_">
            <g>
              <g class="cls-65">
                <path class="cls-49" d="M437.2,499.3c.3,22.4,8,50.8-1.9,47.7-11.4-3.6-24.6-25.2-30.3-46.8-5.7-21.7-13.4-81,3.8-81,5.7,0,28.1,57.6,28.4,80.1Z"/>
              </g>
              <g class="cls-90">
                <path class="cls-72" d="M459.4,442.8c0,15.9-14.8,28.8-33.1,28.8s-25.1-14.8-25.1-30.7,6.8-26.9,25.1-26.9c18.3,0,33.1,12.9,33.1,28.8Z"/>
              </g>
              <g class="cls-67">
                <path class="cls-97" d="M545.5,430.2c0,39.8-70.9,19.8-76.6,19.8-16.7,0-14.7-.1-22.3-7.3-3.8-3.6-9.5-9-9.5-9,0,0-6.6-1.2-11.4-1.8-7.6-.9-11.4-.5-13.2,3.6-.9,2-9.5,1.8-9.5,1.8-3.1-1.8-1.5-9.5-2.3-8.9-.7.5-.6-4.7,0-9,.9-6.6,2.3-12.8,4.2-18.7.7-2,1.4-4.1,2.2-6,4.3-10.5,10.3-19.4,18-26.4,1.4-1.3,2.9-2.5,4.4-3.7,11.5-8.8,26-13.6,43-13.6s35.2,8.2,48,21c6.8,6.7,12.4,14.7,16.6,23.4,5.2,10.9,8.2,22.8,8.2,34.8Z"/>
              </g>
              <g class="cls-19">
                <path class="cls-97" d="M542.7,507.5c0,31.8-41.6,12.6-70,10.8-16.8-1.1-33.9,25.4-18.9,39.6,1.9,1.8,2.2,5.5,1.9,5.4-11.4-5.4-24.6-16.2-32.2-25.2-4.9-5.8,2.4-15.9,7.6-27,6.2-13.3,20.8-14.4,20.8-14.4,0,0-7.6-3.6-11.4-10.8-3.8-7.2-3.8-14.4-3.8-14.4-1.4.9-3.7,1.2-6.4,1.2.9-.4,1.7-.8,2.6-1.2,3.8-1.8,12.8-9.2,15.1-12.6,3.8-5.4,1.9-3.6,3.8-5.4.7-.6,0-23.4-9.5-28.8-3.2-1.9,24.4,23.4,30.3,23.4,38.6,0,70,27.6,70,59.4Z"/>
              </g>
              <g class="cls-84">
                <path class="cls-97" d="M394.4,448.1c0,17.9,7.7,34.2-1.5,39.6-3.1,1.8-12.3-23.4-9.2-41.4,3-17.5,3.9-16.2,7.7-16.2s3.1.1,3.1,18Z"/>
              </g>
              <g class="cls-16">
                <path class="cls-73" d="M451.9,496.7s-14,1.4-20.8,14.4c-5.7,10.8-5.9,15.8-5.2,23.3-1.7-2.2-6.2-8.2-7.6-10.8-9.5-18-11.4-28.8-13.2-39.6-1-5.6-3-15.7-.4-14.3,11.8,6.4,18.4,6,25.7,3,2.8,0,5-.3,6.4-1.2,0,0,0,7.2,3.8,14.4,3.8,7.2,11.4,10.8,11.4,10.8Z"/>
              </g>
              <g class="cls-22">
                <path class="cls-97" d="M403.1,448c0,16.2,43.1,19.9,43.1,19.9,13.2,3.6-30.3,11.6-41.2,5.3-6.2-3.6-6.1-30-6.1-35.9,0-16.4,5.8-40,9.5-39.6,4.1.5-5.3,34.5-5.3,50.3Z"/>
              </g>
              <g class="cls-70">
                <path class="cls-49" d="M460,422c-8,5-5-19-32-13-5.8,1.3-19.6,7.3-23-8.3.7-2,1.4-4.1,2.2-6,4.3-10.5,10.3-19.4,18-26.4,1.4-1.3,2.9-2.5,4.4-3.7,14.2,10.9,38.7,52.2,30.4,57.4Z"/>
              </g>
              <g class="cls-54">
                <path class="cls-68" d="M525.7,388.8c0,21.9-23.7,36-53,36s-11.4,1.8-11.4,1.8c0,0-5.5-16.8-9.5-25.2-10-21.2-20.1-28.7-26.6-33,12.1-11.1,28.1-17.3,47.5-17.3s35.2,8.2,47.9,21c3.2,5.1,5,10.8,5,16.8Z"/>
              </g>
              <g class="cls-4">
                <path class="cls-49" d="M447,461c5.4-3.2,3.5,11-10,11s-32-10-32-15,31,11,34,10c2.1-.7,3-3,8-6Z"/>
              </g>
              <g class="cls-25">
                <path class="cls-49" d="M454,436c0,10.5,12.1,14,6,14s-16.6-12.6-24-20-9.1-16-3-16,21,11.5,21,22Z"/>
              </g>
              <g class="cls-26">
                <path class="cls-49" d="M481,477c0,6.1-1.4,12-8,12s-29-17.9-29-24,18.4,1,25,1,12,4.9,12,11Z"/>
              </g>
              <g class="cls-92">
                <path class="cls-68" d="M487.8,468s-18.9,0-26.7-2.3c0,0-15.3-4.6-14.9-4.9,1.9-1.8,2.9-3.8,3.8-5.4q1.9-3.6,1.9-7.2s11.3,2.9,15.1,3.6c9.5,1.8,20.8-1.8,20.8-1.8v18Z"/>
              </g>
            </g>
          </g>
          <g id="_x3C_Upprepa_Spegla_x3E_-4" data-name="_x3C_Upprepa_Spegla_x3E_">
            <g>
              <g class="cls-36">
                <path class="cls-49" d="M508.1,499.3c-.3,22.4-8,50.8,1.9,47.7,11.3-3.6,24.6-25.2,30.3-46.8,5.7-21.7,13.3-81-3.8-81-5.7,0-28.1,57.6-28.4,80.1Z"/>
              </g>
              <g class="cls-64">
                <path class="cls-72" d="M485.8,442.8c0,15.9,14.8,28.8,33.1,28.8s25.1-14.8,25.1-30.7-6.8-26.9-25.1-26.9c-18.3,0-33.1,12.9-33.1,28.8Z"/>
              </g>
              <g class="cls-37">
                <path class="cls-97" d="M399.8,430.2c0,39.8,70.9,19.8,76.6,19.8,16.7,0,14.7-.1,22.3-7.3,3.8-3.6,9.5-9,9.5-9,0,0,6.7-1.2,11.3-1.8,7.6-.9,11.4-.5,13.2,3.6.9,2,9.5,1.8,9.5,1.8,3.1-1.8,1.5-9.5,2.3-8.9.7.5.6-4.7,0-9-.9-6.6-2.3-12.8-4.2-18.7-.7-2-1.4-4.1-2.2-6-4.3-10.5-10.3-19.4-18-26.4-1.4-1.3-2.9-2.5-4.4-3.7-11.5-8.8-26-13.6-43-13.6s-35.2,8.2-48,21c-6.8,6.7-12.4,14.7-16.6,23.4-5.2,10.9-8.2,22.8-8.2,34.8Z"/>
              </g>
              <g class="cls-46">
                <path class="cls-97" d="M402.6,507.5c0,31.8,41.6,12.6,70,10.8,16.8-1.1,33.9,25.4,18.9,39.6-1.9,1.8-2.2,5.5-1.9,5.4,11.4-5.4,24.6-16.2,32.2-25.2,4.9-5.8-2.4-15.9-7.6-27-6.2-13.3-20.8-14.4-20.8-14.4,0,0,7.6-3.6,11.4-10.8,3.8-7.2,3.8-14.4,3.8-14.4,1.4.9,3.7,1.2,6.4,1.2-.9-.4-1.7-.8-2.7-1.2-3.8-1.8-12.8-9.2-15.1-12.6-3.8-5.4-1.9-3.6-3.8-5.4-.7-.6,0-23.4,9.5-28.8,3.2-1.9-24.4,23.4-30.3,23.4-38.6,0-70,27.6-70,59.4Z"/>
              </g>
              <g class="cls-86">
                <path class="cls-97" d="M550.8,448.1c0,17.9-7.7,34.2,1.5,39.6,3.1,1.8,12.3-23.4,9.2-41.4-3-17.5-3.9-16.2-7.7-16.2-3.8,0-3.1.1-3.1,18Z"/>
              </g>
              <g class="cls-69">
                <path class="cls-73" d="M493.4,496.7s14,1.4,20.8,14.4c5.7,10.8,5.9,15.8,5.2,23.3,1.7-2.2,6.2-8.2,7.6-10.8,9.5-18,11.3-28.8,13.2-39.6,1-5.6,3-15.7.4-14.3-11.8,6.4-18.4,6-25.7,3-2.8,0-5-.3-6.4-1.2,0,0,0,7.2-3.8,14.4-3.8,7.2-11.4,10.8-11.4,10.8Z"/>
              </g>
              <g class="cls-17">
                <path class="cls-97" d="M542.2,448c0,16.2-43.1,19.9-43.1,19.9-13.2,3.6,30.3,11.6,41.2,5.3,6.2-3.6,6.1-30,6.1-35.9,0-16.4-5.8-40-9.5-39.6-4.1.5,5.3,34.5,5.3,50.3Z"/>
              </g>
              <g class="cls-75">
                <path class="cls-49" d="M485.3,422c8,5,5-19,32-13,5.8,1.3,19.6,7.3,23-8.3-.7-2-1.4-4.1-2.2-6-4.3-10.5-10.3-19.4-18-26.4-1.4-1.3-2.9-2.5-4.4-3.7-14.2,10.9-38.7,52.2-30.4,57.4Z"/>
              </g>
              <g class="cls-20">
                <path class="cls-68" d="M419.6,388.8c0,21.9,23.7,36,53,36s11.4,1.8,11.4,1.8c0,0,5.5-16.8,9.5-25.2,10-21.2,20.1-28.7,26.6-33-12.1-11.1-28.1-17.3-47.5-17.3s-35.2,8.2-48,21c-3.2,5.1-5,10.8-5,16.8Z"/>
              </g>
              <g class="cls-2">
                <path class="cls-49" d="M498.3,461c-5.4-3.2-3.5,11,10,11s32-10,32-15-31,11-34,10c-2.1-.7-3-3-8-6Z"/>
              </g>
              <g class="cls-44">
                <path class="cls-49" d="M491.3,436c0,10.5-12.1,14-6,14s16.6-12.6,24-20c5-5,9.1-16,3-16s-21,11.5-21,22Z"/>
              </g>
              <g class="cls-43">
                <path class="cls-49" d="M464.3,477c0,6.1,1.4,12,8,12s29-17.9,29-24-18.4,1-25,1-12,4.9-12,11Z"/>
              </g>
              <g class="cls-88">
                <path class="cls-68" d="M457.5,468s18.9,0,26.7-2.3c0,0,15.3-4.6,14.9-4.9-1.9-1.8-2.9-3.8-3.8-5.4q-1.9-3.6-1.9-7.2s-11.3,2.9-15.1,3.6c-9.5,1.8-20.8-1.8-20.8-1.8v18Z"/>
              </g>
            </g>
          </g>
        </g>
        <ellipse class="cls-29" cx="472.6" cy="540.5" rx="17" ry="16.2"/>
        <ellipse class="cls-60" cx="431.1" cy="448.5" rx="13.3" ry="12.6"/>
        <ellipse class="cls-39" cx="515.8" cy="447.7" rx="13.7" ry="13"/>
        <path class="cls-72" d="M480.1,496.6h-14.6c-1.7,0-3.2-1.3-3.5-3l-1.5-9.1c-.3-2.1,1.3-4.1,3.5-4.1h17.5c2.2,0,3.8,1.9,3.5,4.1l-1.5,9.1c-.3,1.7-1.7,3-3.5,3Z"/>
        <ellipse cx="431.1" cy="448.5" rx="4.6" ry="4.3"/>
        <ellipse cx="515.8" cy="447.7" rx="4.6" ry="4.3"/>
        <ellipse class="cls-18" cx="472.6" cy="540.5" rx="10" ry="9.5"/>
        <ellipse class="cls-82" cx="472.6" cy="540.5" rx="6.3" ry="6"/>
        <g>
          <g>
            <g id="_x3C_Upprepa_Spegla_x3E_-5" data-name="_x3C_Upprepa_Spegla_x3E_">
              <g>
                <g class="cls-3">
                  <path class="cls-49" d="M105.7,178.1c.3,22.4,8,50.8-1.9,47.7-11.3-3.6-24.6-25.2-30.3-46.8-5.7-21.7-13.3-81,3.8-81,5.7,0,28.1,57.7,28.4,80.1Z"/>
                </g>
                <g class="cls-83">
                  <path class="cls-72" d="M127.9,121.5c0,15.9-14.8,28.8-33.1,28.8s-25.1-14.8-25.1-30.7,6.8-26.9,25.1-26.9,33.1,12.9,33.1,28.8Z"/>
                </g>
                <g class="cls-52">
                  <path class="cls-97" d="M214,108.9c0,39.7-70.9,19.8-76.6,19.8-16.7,0-14.7-.1-22.3-7.3-3.8-3.6-9.5-9-9.5-9,0,0-6.7-1.2-11.3-1.8-7.6-.9-11.4-.5-13.2,3.6-.9,2-9.5,1.8-9.5,1.8-3.1-1.8-1.5-9.5-2.3-8.9-.7.5-.6-4.7,0-9,.9-6.6,2.3-12.8,4.2-18.7.7-2.1,1.4-4.1,2.2-6,4.3-10.5,10.3-19.4,18-26.4,1.4-1.3,2.9-2.5,4.4-3.7,11.5-8.8,26-13.6,43-13.6s35.2,8.2,48,21c6.8,6.7,12.4,14.7,16.6,23.4,5.2,10.9,8.2,22.8,8.2,34.8Z"/>
                </g>
                <g class="cls-59">
                  <path class="cls-97" d="M211.2,186.3c0,31.8-41.6,12.6-70,10.8-16.8-1.1-33.9,25.4-18.9,39.6,1.9,1.8,2.2,5.5,1.9,5.4-11.3-5.4-24.6-16.2-32.2-25.2-4.9-5.9,2.4-15.9,7.6-27,6.2-13.3,20.8-14.4,20.8-14.4,0,0-7.6-3.6-11.3-10.8-3.8-7.2-3.8-14.4-3.8-14.4-1.4.9-3.7,1.2-6.4,1.2.9-.4,1.7-.8,2.7-1.2,3.8-1.8,12.8-9.2,15.1-12.6,3.8-5.4,1.9-3.6,3.8-5.4.7-.6,0-23.4-9.5-28.8-3.2-1.8,24.4,23.4,30.3,23.4,38.6,0,70,27.6,70,59.4Z"/>
                </g>
                <g class="cls-33">
                  <path class="cls-97" d="M62.9,126.9c0,17.9,7.7,34.2-1.5,39.6-3.1,1.8-12.3-23.4-9.2-41.4,3-17.5,3.9-16.2,7.7-16.2s3.1.1,3.1,18Z"/>
                </g>
                <g class="cls-35">
                  <path class="cls-73" d="M120.4,175.5s-14,1.4-20.8,14.4c-5.7,10.8-5.9,15.8-5.2,23.3-1.7-2.2-6.2-8.2-7.6-10.8-9.5-18-11.3-28.8-13.2-39.6-1-5.6-3-15.7-.4-14.3,11.8,6.4,18.4,6,25.7,3,2.8,0,5.1-.3,6.4-1.2,0,0,0,7.2,3.8,14.4,3.8,7.2,11.3,10.8,11.3,10.8Z"/>
                </g>
                <g class="cls-95">
                  <path class="cls-97" d="M71.6,126.8c0,16.2,43.1,19.9,43.1,19.9,13.2,3.6-30.3,11.6-41.2,5.3-6.2-3.6-6.1-30-6.1-35.9,0-16.4,5.8-40,9.5-39.6,4.1.5-5.3,34.5-5.3,50.3Z"/>
                </g>
                <g class="cls-50">
                  <path class="cls-49" d="M93.7,47.1c1.4-1.3,2.9-2.5,4.4-3.7,14.2,10.9,38.7,52.2,30.4,57.4-8,5-5-19-32-13-5.8,1.3-19.6,7.3-23-8.3.7-2.1,1.4-4.1,2.2-6"/>
                </g>
                <g class="cls-51">
                  <path class="cls-68" d="M194.2,67.6c0,21.9-23.7,36-53,36s-11.4,1.8-11.4,1.8c0,0-5.5-16.8-9.5-25.2-10-21.2-20.1-28.7-26.7-33,12.1-11.1,28.1-17.3,47.5-17.3s35.2,8.2,47.9,21c3.2,5.1,5,10.8,5,16.8Z"/>
                </g>
                <g class="cls-23">
                  <path class="cls-49" d="M107.5,145.8c2.1-.7,3-3,8-6,5.4-3.2,3.5,11-10,11s-32-10-32-15"/>
                </g>
                <g class="cls-45">
                  <path class="cls-49" d="M149.5,155.8c0,6.1-1.4,12-8,12s-29-17.9-29-24,18.4,1,25,1,12,4.9,12,11Z"/>
                </g>
                <g class="cls-87">
                  <path class="cls-68" d="M156.3,146.7s-18.9,0-26.7-2.3c0,0-15.3-4.6-14.9-4.9,1.9-1.8,2.9-3.8,3.8-5.4q1.9-3.6,1.9-7.2s11.3,2.9,15.1,3.6c9.5,1.8,20.8-1.8,20.8-1.8v18Z"/>
                </g>
              </g>
            </g>
            <g id="_x3C_Upprepa_Spegla_x3E_-6" data-name="_x3C_Upprepa_Spegla_x3E_">
              <g>
                <g class="cls-66">
                  <path class="cls-49" d="M176.6,178.1c-.3,22.4-8,50.8,1.9,47.7,11.4-3.6,24.6-25.2,30.3-46.8,5.7-21.7,13.4-81-3.8-81-5.7,0-28.1,57.7-28.4,80.1Z"/>
                </g>
                <g class="cls-1">
                  <path class="cls-72" d="M154.3,121.5c0,15.9,14.8,28.8,33.1,28.8s25.1-14.8,25.1-30.7-6.8-26.9-25.1-26.9-33.1,12.9-33.1,28.8Z"/>
                </g>
                <g class="cls-57">
                  <path class="cls-97" d="M68.3,108.9c0,39.7,70.9,19.8,76.6,19.8,16.7,0,14.7-.1,22.3-7.3,3.8-3.6,9.5-9,9.5-9,0,0,6.6-1.2,11.4-1.8,7.6-.9,11.4-.5,13.2,3.6.9,2,9.5,1.8,9.5,1.8,3.1-1.8,1.5-9.5,2.3-8.9.7.5.6-4.7,0-9-.9-6.6-2.3-12.8-4.2-18.7-.7-2.1-1.4-4.1-2.2-6-4.3-10.5-10.3-19.4-18-26.4-1.4-1.3-2.9-2.5-4.4-3.7-11.5-8.8-26-13.6-43-13.6s-35.2,8.2-48,21c-6.8,6.7-12.4,14.7-16.6,23.4-5.3,10.9-8.2,22.8-8.2,34.8Z"/>
                </g>
                <g class="cls-80">
                  <path class="cls-97" d="M71.1,186.3c0,31.8,41.6,12.6,70,10.8,16.8-1.1,33.9,25.4,18.9,39.6-1.9,1.8-2.2,5.5-1.9,5.4,11.4-5.4,24.6-16.2,32.2-25.2,4.9-5.9-2.4-15.9-7.6-27-6.2-13.3-20.8-14.4-20.8-14.4,0,0,7.6-3.6,11.4-10.8,3.8-7.2,3.8-14.4,3.8-14.4,1.4.9,3.7,1.2,6.4,1.2-.9-.4-1.7-.8-2.6-1.2-3.8-1.8-12.8-9.2-15.1-12.6-3.8-5.4-1.9-3.6-3.8-5.4-.7-.6,0-23.4,9.5-28.8,3.2-1.8-24.4,23.4-30.3,23.4-38.7,0-70,27.6-70,59.4Z"/>
                </g>
                <g class="cls-27">
                  <path class="cls-97" d="M219.4,126.9c0,17.9-7.7,34.2,1.5,39.6,3.1,1.8,12.3-23.4,9.2-41.4-3-17.5-3.9-16.2-7.7-16.2s-3.1.1-3.1,18Z"/>
                </g>
                <g class="cls-77">
                  <path class="cls-73" d="M161.9,175.5s14,1.4,20.8,14.4c5.7,10.8,5.9,15.8,5.2,23.3,1.7-2.2,6.2-8.2,7.6-10.8,9.5-18,11.4-28.8,13.2-39.6,1-5.6,3-15.7.4-14.3-11.8,6.4-18.4,6-25.7,3-2.8,0-5.1-.3-6.4-1.2,0,0,0,7.2-3.8,14.4-3.8,7.2-11.4,10.8-11.4,10.8Z"/>
                </g>
                <g class="cls-48">
                  <path class="cls-97" d="M210.7,126.8c0,16.2-43.1,19.9-43.1,19.9-13.2,3.6,30.3,11.6,41.2,5.3,6.2-3.6,6.1-30,6.1-35.9,0-16.4-5.8-40-9.5-39.6-4.1.5,5.3,34.5,5.3,50.3Z"/>
                </g>
                <g class="cls-41">
                  <path class="cls-49" d="M188.6,47.1c-1.4-1.3-2.9-2.5-4.4-3.7-14.2,10.9-38.7,52.2-30.4,57.4,8,5,5-19,32-13,5.8,1.3,19.6,7.3,23-8.3-.7-2.1-1.4-4.1-2.2-6"/>
                </g>
                <g class="cls-89">
                  <path class="cls-68" d="M88.1,67.6c0,21.9,23.7,36,53,36s11.4,1.8,11.4,1.8c0,0,5.5-16.8,9.5-25.2,10-21.2,20.1-28.7,26.6-33-12.1-11.1-28.1-17.3-47.5-17.3s-35.2,8.2-47.9,21c-3.2,5.1-5,10.8-5,16.8Z"/>
                </g>
                <g class="cls-34">
                  <path class="cls-49" d="M174.8,145.8c-2.1-.7-3-3-8-6-5.4-3.2-3.5,11,10,11s32-10,32-15"/>
                </g>
                <g class="cls-38">
                  <path class="cls-49" d="M132.8,155.8c0,6.1,1.4,12,8,12s29-17.9,29-24-18.4,1-25,1-12,4.9-12,11Z"/>
                </g>
                <g class="cls-21">
                  <path class="cls-68" d="M126,146.7s18.9,0,26.7-2.3c0,0,15.3-4.6,14.9-4.9-1.9-1.8-2.9-3.8-3.8-5.4q-1.9-3.6-1.9-7.2s-11.3,2.9-15.1,3.6c-9.5,1.8-20.8-1.8-20.8-1.8v18Z"/>
                </g>
              </g>
            </g>
          </g>
          <ellipse class="cls-29" cx="141.1" cy="219.3" rx="17" ry="16.2"/>
          <ellipse class="cls-12" cx="99.6" cy="127.2" rx="13.3" ry="12.6"/>
          <ellipse class="cls-12" cx="184.3" cy="126.5" rx="13.7" ry="13"/>
          <path class="cls-72" d="M148.6,175.4h-14.6c-1.7,0-3.2-1.3-3.5-3l-1.5-9.1c-.3-2.1,1.3-4.1,3.5-4.1h17.6c2.2,0,3.8,1.9,3.5,4.1l-1.5,9.1c-.3,1.7-1.7,3-3.5,3Z"/>
          <ellipse cx="99.6" cy="127.2" rx="4.6" ry="4.3"/>
          <ellipse cx="184.3" cy="126.5" rx="4.6" ry="4.3"/>
          <ellipse class="cls-18" cx="141.1" cy="219.3" rx="10" ry="9.5"/>
          <ellipse class="cls-82" cx="141.1" cy="219.3" rx="6.3" ry="6"/>
        </g>
      </g>
      <g id="Lager_2" class="cls-76">
        <g>
          <path class="cls-31" d="M260.8,382.8l2.8,1.5c.5.3-7.4,23.1-7.4,23.1l-9.4-3.6,14.1-21Z"/>
          <g>
            <path class="cls-55" d="M457.6,385.9c0,16.7-14.6,29.3-29.3,41.8-1.2,1.1-2.5,2.1-3.7,3.1-30.6,24.3-59.2,24.1-117.6,24.1s-62.1-8.2-87.9-22.8c-3.6-2,9.6-39.5,33.5-29.5,39.7,16.7,58.6,29.3,79.5,16.7,76.2-45.8-27.2-92-52.3-94.1-.6,0-1.3-.1-1.9-.1-31.4-2-35.3,14.9-43.2,29.3-4.3,7.7-9.8,14.8-21.2,17.9-1.5.4-3,.7-4.7,1-19.9,3.1-4.5-70.3-10.5-89.9-3.9-13-66.9,2-66.9-12.5,0-21.5,7.1-41.1,19-58.1h0c2.3-3.4,4.9-6.6,7.6-9.8,4.4-5,9.2-9.8,14.3-14.2,38.7-33.4,98.3-50.2,149.3-41.2,66.6,11.6,106.4,50.3,127.7,99.4,10.4,24,16.5,50.5,19.1,77.5,1.2,11.8-10.9,50.5-10.9,61.5Z"/>
            <path class="cls-31" d="M370.9,368.1c12.8,28.8,18.8,60.6-62.7,60.6s-43.6-7.7-59.7-15.7c-4.2-2.1,13.6-15.7,13.6-15.7,0,0,29.3,24.3,48.2,25.2,43.9,2.1,60.6-54.4,16.7-73.2-20.8-8.9-59.5-18.6-51.3-28.5,11.3-13.6,41.7-18,27.9-10.9-35.3,18.3,54.6,29.7,67.3,58.2Z"/>
            <path class="cls-74" d="M359.4,331.5c43.6,6.9,67.3,20.7,66.9,33.5-.7,25.4,4.2,37.6-1.6,65.8-30.6,24.3-59.2,24.1-117.6,24.1s-62.1-8.2-87.9-22.8c-3.6-2,14.5-47.1,33.5-29.5,27.2,25.1,66.9,42.3,96.2,16.7,18-15.7,18.5-47.1,8.4-60.6-16.8-22.6-61.7-32.2-77.4-33.5"/>
            <path class="cls-96" d="M437,291.9l-39-12.5c-3-1-5.6-3.3-7.4-6.7l-1.4-2.7c-1.6-3.2.1-7.5,3.1-7.5h39.3c7.4,0,13.4,7.7,13.4,17.2v4c0,5.4-4,9.4-8.1,8.1Z"/>
            <path class="cls-31" d="M344.6,228.7l-2.8-1.6c-.5-.3-16,18.3-16,18.3l8,6.2,10.8-22.8Z"/>
            <path class="cls-31" d="M296.6,329.4c-16.8-3.7-31.8-19.2-33.9-33.8-1.5-10.6,4.2-16.7,14.6-25.1,10.1-8.1,58-32.1,58-32.1,0,0-17.8-11.5-32.4-11.5-31.2,0-53.7,22.4-55.5,53.6-2,35.3,25.2,54.1,62.8,60.4"/>
            <circle class="cls-94" cx="301.8" cy="282.4" r="47.1"/>
            <path class="cls-91" d="M449.5,246.9c-107.3-71.5-272-59.7-272-59.7-1.6,0-3.3.5-5,1.5,38.7-33.4,98.3-50.2,149.3-41.2,66.6,11.6,106.4,50.3,127.7,99.4Z"/>
            <ellipse class="cls-81" cx="432.5" cy="276.1" rx="6.3" ry="13.6"/>
          </g>
        </g>
      </g>
      <g id="Lager_9" class="cls-76">
        <g>
          <rect x="56.5" y="77.4" width="487.1" height="445.3"/>
          <g>
            <path class="cls-13" d="M271.5,383.7l2.8,1.5c.5.3-7.4,23.1-7.4,23.1l-9.4-3.6,14.1-21Z"/>
            <g>
              <path class="cls-82" d="M468.3,386.8c0,16.7-14.6,29.3-29.3,41.8-1.2,1.1-2.5,2.1-3.7,3.1-30.6,24.3-59.2,24.1-117.5,24.1s-62-8.2-87.9-22.8c-3.6-2,9.6-39.5,33.5-29.5,39.7,16.7,58.5,29.3,79.4,16.7,76.2-45.7-27.2-92-52.3-94.1-.6,0-1.3-.1-1.9-.1-31.4-1.9-35.2,14.8-43.2,29.3-4.3,7.7-9.7,14.8-21.2,17.9-1.5.4-3,.7-4.7,1-19.9,3.1-4.5-70.3-10.4-89.9-3.9-13-66.9,2-66.9-12.5,0-21.5,7.1-41.1,19-58.1h0c2.3-3.4,4.9-6.6,7.6-9.8,4.4-5,9.2-9.8,14.3-14.2,38.7-33.4,98.2-50.2,149.2-41.2,66.6,11.6,106.3,50.3,127.7,99.4,10.4,24,16.5,50.5,19.1,77.5,1.1,11.8-10.9,50.5-10.9,61.4Z"/>
              <path class="cls-13" d="M381.5,369c12.8,28.8,18.8,60.6-62.7,60.6s-43.6-7.6-59.7-15.7c-4.2-2.1,13.6-15.7,13.6-15.7,0,0,29.3,24.3,48.2,25.1,43.9,2.1,60.6-54.4,16.7-73.2-20.8-8.9-59.5-18.6-51.3-28.5,11.3-13.5,41.7-18,27.9-10.9-35.2,18.2,54.6,29.6,67.3,58.2Z"/>
              <path class="cls-18" d="M370,332.4c43.5,6.9,67.2,20.7,66.9,33.5-.7,25.4,4.2,37.6-1.6,65.8-30.6,24.3-59.2,24.1-117.5,24.1s-62-8.2-87.9-22.8c-3.6-2,14.5-47.1,33.5-29.5,27.2,25.1,66.8,42.2,96.2,16.7,18-15.7,18.4-47,8.4-60.6-16.8-22.6-61.7-32.1-77.3-33.5"/>
              <path class="cls-96" d="M447.7,292.8l-39-12.5c-3-1-5.6-3.3-7.3-6.6l-1.4-2.7c-1.6-3.2.1-7.5,3.1-7.5h39.3c7.4,0,13.4,7.7,13.4,17.2v4c0,5.4-4,9.4-8.1,8.1Z"/>
              <path class="cls-13" d="M355.3,229.6l-2.8-1.6c-.5-.3-15.9,18.2-15.9,18.2l8,6.2,10.7-22.8Z"/>
              <path class="cls-13" d="M307.3,330.3c-16.8-3.7-31.8-19.2-33.9-33.8-1.5-10.5,4.2-16.7,14.6-25.1,10.1-8,57.9-32,57.9-32,0,0-17.8-11.5-32.4-11.5-31.2,0-53.7,22.4-55.5,53.5-2,35.3,25.1,54.1,62.8,60.4"/>
              <circle class="cls-29" cx="312.5" cy="283.3" r="47"/>
              <path class="cls-79" d="M460.1,247.8c-107.2-71.4-271.9-59.7-271.9-59.7-1.6,0-3.3.5-5,1.5,38.7-33.4,98.2-50.1,149.2-41.2,66.6,11.6,106.3,50.3,127.7,99.4Z"/>
              <ellipse class="cls-81" cx="443.2" cy="277" rx="6.3" ry="13.6"/>
            </g>
          </g>
        </g>
      </g>
      <g id="Lager_8" class="cls-76">
        <g>
          <rect x="27" y="193.5" width="546" height="213"/>
          <g>
            <path class="cls-12" d="M125.6,321.2h2v5.3c-1.6,1.3-3.4,2.6-5.6,3.9-2.2,1.4-4.5,2.5-7.1,3.4-2.6.9-5.3,1.4-8.2,1.4-5.7,0-10.7-1.2-14.9-3.5s-7.6-5.7-9.9-10.2c-2.3-4.5-3.5-9.8-3.5-16.1s1.2-11.4,3.7-15.9c2.5-4.5,5.8-8,10.1-10.5s9.2-3.7,14.6-3.7,4.2.2,6.6.5,4.7.7,7,1.2c2.3.5,4.2.9,5.7,1.3v14.6h-4.7l-1.6-8.2c0-.4-.3-.8-.7-1.1s-.8-.5-1.3-.8c-1.7-.9-3.5-1.5-5.4-2-1.9-.5-4.1-.7-6.4-.7-5.5,0-9.9,1.9-13.4,5.8s-5.2,9.7-5.2,17.6,1.8,14.6,5.5,18.9,9,6.4,16,6.4,4.4-.4,6.2-1.1,3.6-1.7,5.2-2.8c1.6-1.2,3.3-2.5,5-3.8Z"/>
            <path class="cls-12" d="M135.7,334v-3l6.2-2c.4-.1.8-.4,1.1-.7s.5-.8.5-1.3v-43.5c0-.6-.1-1-.4-1.3s-.6-.5-1.1-.6l-6.2-2v-2.9h23.8v2.9l-6.2,2c-.4.1-.8.4-1.1.7-.3.3-.5.7-.5,1.3v45.6h20.6c.4,0,.8-.1,1.2-.5s.5-.7.6-1.2l1.8-11.8h4.8v18.3h-45.1Z"/>
            <path class="cls-12" d="M215.4,335.3c-5.9,0-10.9-1.2-15.1-3.7-4.1-2.5-7.2-5.9-9.4-10.4-2.1-4.5-3.2-9.8-3.2-16s1.1-11,3.3-15.5,5.4-8,9.5-10.6,9.1-3.9,14.9-3.9,11.5,1.3,15.6,3.9,7.1,6.2,9.1,10.7,3,9.6,3,15.3-.5,7.5-1.6,11.1-2.7,6.8-4.9,9.7-5.1,5.1-8.6,6.8c-3.5,1.7-7.7,2.5-12.6,2.5ZM216.2,330.6c3.9,0,7.2-1,9.8-3s4.6-4.9,5.9-8.5,2-7.8,2-12.5-.7-10.1-2.1-14.1c-1.4-4-3.5-7-6.4-9.2s-6.4-3.2-10.8-3.2-7.5,1.1-10.1,3.2-4.5,5-5.7,8.6-1.8,7.6-1.8,11.9.7,10,2.1,14.1,3.5,7.1,6.3,9.4,6.4,3.4,10.8,3.4Z"/>
            <path class="cls-12" d="M273.9,334.8l-20.3-51.4c-.2-.4-.4-.8-.7-1.2-.3-.4-.7-.7-1.2-.9l-4.2-1.8v-2.9h21.2v2.9l-6.7,2.4,14.4,36.7,1.5,5.3h.6l15.8-41.8-6.7-2.6v-2.9h17.9v2.9l-4.1,1.9c-.4.2-.8.5-1.2.8-.4.4-.6.8-.8,1.2l-16.4,41.8-4.5,9.5h-4.6Z"/>
            <path class="cls-12" d="M310,334v-3l6.5-2c.5-.2.9-.4,1.1-.7.3-.3.4-.7.4-1.3v-43.5c0-.6-.1-1-.4-1.3s-.6-.5-1.1-.6l-6.5-2v-2.9h24.4v2.9l-6.4,2c-.4.1-.8.4-1.1.7s-.5.7-.5,1.3v43.5c0,.6.1,1,.5,1.3s.7.5,1.1.7l6.4,2v3h-24.4Z"/>
          </g>
          <g>
            <path class="cls-29" d="M289.9,396.8v-2l4.1-1.3c.3,0,.5-.2.7-.4.2-.2.3-.5.3-.9v-29c0-.4-.1-.7-.3-.9s-.4-.3-.7-.4l-4.1-1.4v-2h15.4c3.8,0,6.6.4,8.6,1.2s3.4,1.9,4.1,3.1c.8,1.3,1.1,2.7,1.1,4.1,0,2.4-.7,4.4-2.2,6s-3.4,2.7-5.9,3.3v.2c2,.1,3.9.5,5.5,1.3s2.9,1.8,3.8,3.2c.9,1.3,1.4,2.9,1.4,4.7s-.4,4-1.3,5.5c-.9,1.4-2,2.6-3.5,3.4-1.5.8-3.2,1.4-5,1.7-1.9.3-3.8.5-5.8.5h-16.2ZM300.6,361.7v13.9h2.8c3.7,0,6.3-.6,7.8-1.7s2.1-2.7,2.1-4.7-.7-4.5-2.1-5.7c-1.4-1.2-3.6-1.8-6.7-1.8h-3.9ZM300.6,378.7v14.9h6.1c3,0,5.2-.5,6.6-1.6,1.5-1.1,2.2-2.9,2.2-5.4s-.8-5-2.3-6.1-4.1-1.8-7.8-1.8h-4.8Z"/>
            <path class="cls-29" d="M327.8,396.8v-2l4.1-1.3c.3,0,.5-.2.7-.4.2-.2.3-.5.3-.9v-29c0-.4-.1-.7-.3-.9s-.4-.3-.7-.4l-4.1-1.4v-2h15.6c2.9,0,5.3.3,7.1.9,1.8.6,3.3,1.3,4.3,2.3,1,.9,1.7,2,2.1,3.1.4,1.1.6,2.3.6,3.4,0,2.1-.5,3.9-1.4,5.4-.9,1.5-2.1,2.7-3.4,3.5s-2.7,1.5-4.1,1.8l-4.3,1.8-6.1-1.2.2-2.9c.2,0,.5.1,1.1.2.6,0,1.2.1,1.9.1s1.2,0,1.6,0c1.9,0,3.5-.4,4.8-1,1.2-.7,2.2-1.6,2.8-2.8s.9-2.4.9-3.7c0-2.7-.8-4.6-2.3-5.8-1.5-1.2-3.8-1.8-6.7-1.8h-4v30.4c0,.4.1.7.3.9.2.2.4.4.7.4l4.2,1.3v2h-15.9ZM365,396.8h-6.5c-1.2,0-2.1-.1-2.7-.3-.6-.2-1.1-.6-1.5-1-.4-.5-.9-1.2-1.6-2.1l-9.6-13.2,5.4-1.7,10,13.3c.2.3.5.6,1,1s.9.6,1.2.8l4.1,1.2v2h0Z"/>
            <path class="cls-29" d="M364.5,396.8v-2l2.7-1.2c.7-.3,1.1-.8,1.4-1.5l10.9-27.8,3.1-6.4h3l13.5,34.2c.1.3.3.6.5.9.2.3.5.5.8.6l2.8,1.1v2h-14.1v-2l4.5-1.5-9.5-24.5-1-3.6h-.5l-10.5,27.9,4.5,1.7v2h-12ZM375.2,383.4l1.3-3.7h12.3l1.3,3.7h-14.9Z"/>
            <path class="cls-29" d="M410.3,396.8v-2l4.4-1.3c.3,0,.6-.2.8-.4s.3-.5.3-.9v-9.7l-10.9-19.4c-.1-.3-.3-.5-.5-.8s-.5-.5-.8-.6l-3-1.2v-2h14.1v2l-4.4,1.6,7.7,13.2,1.5,3.3h.4l9.1-16.4-4.4-1.7v-2h12v2l-2.9,1.2c-.3.1-.5.3-.8.6-.2.3-.4.5-.6.8l-11,19.1v9.9c0,.4,0,.7.3.9.2.2.4.4.7.4l4.4,1.3v2h-16.5Z"/>
          </g>
          <g>
            <path class="cls-13" d="M373.5,314l1.3.7c.2.1-3.5,11-3.5,11l-4.5-1.7,6.7-10Z"/>
            <g>
              <path class="cls-82" d="M467.4,315.5c0,8-7,14-14,20-.6.5-1.2,1-1.8,1.5-14.6,11.6-28.2,11.5-56.1,11.5s-29.6-3.9-42-10.9c-1.7-1,4.6-18.9,16-14.1,19,8,28,14,37.9,8,36.4-21.8-13-43.9-25-44.9-.3,0-.6,0-.9,0-15-.9-16.8,7.1-20.6,14-2.1,3.7-4.6,7.1-10.1,8.6-.7.2-1.5.4-2.2.5-9.5,1.5-2.1-33.6-5-42.9-1.9-6.2-32,1-32-6,0-10.3,3.4-19.6,9.1-27.8h0c1.1-1.6,2.3-3.2,3.6-4.7,2.1-2.4,4.4-4.7,6.8-6.8,18.5-15.9,46.9-23.9,71.3-19.7,31.8,5.6,50.8,24,61,47.5,5,11.5,7.9,24.1,9.1,37,.5,5.6-5.2,24.1-5.2,29.3Z"/>
              <path class="cls-13" d="M426,307c6.1,13.8,9,29-30,29s-20.8-3.6-28.5-7.5c-2-1,6.5-7.5,6.5-7.5,0,0,14,11.6,23,12,21,1,29-26,8-34.9-9.9-4.2-28.4-8.9-24.5-13.6,5.4-6.5,19.9-8.6,13.3-5.2-16.8,8.7,26.1,14.1,32.1,27.8Z"/>
              <path class="cls-18" d="M420.5,289.5c20.8,3.3,32.1,9.9,32,16-.3,12.1,2,18-.8,31.4-14.6,11.6-28.2,11.5-56.1,11.5s-29.6-3.9-42-10.9c-1.7-1,6.9-22.5,16-14.1,13,12,31.9,20.2,45.9,8,8.6-7.5,8.8-22.5,4-29-8-10.8-29.5-15.4-36.9-16"/>
              <path class="cls-96" d="M457.6,270.6l-18.6-6c-1.4-.5-2.7-1.6-3.5-3.2l-.7-1.3c-.8-1.5,0-3.6,1.5-3.6h18.8c3.5,0,6.4,3.7,6.4,8.2v1.9c0,2.6-1.9,4.5-3.8,3.9Z"/>
              <path class="cls-13" d="M413.5,240.4l-1.3-.8c-.2-.1-7.6,8.7-7.6,8.7l3.8,2.9,5.1-10.9Z"/>
              <path class="cls-13" d="M390.5,288.5c-8-1.8-15.2-9.2-16.2-16.1-.7-5,2-8,7-12,4.8-3.9,27.7-15.3,27.7-15.3,0,0-8.5-5.5-15.5-5.5-14.9,0-25.6,10.7-26.5,25.6-1,16.9,12,25.8,30,28.8"/>
              <circle class="cls-29" cx="393" cy="266" r="22.5"/>
              <path class="cls-79" d="M463.5,249.1c-51.2-34.1-129.9-28.5-129.9-28.5-.8,0-1.6.3-2.4.7,18.5-15.9,46.9-23.9,71.3-19.7,31.8,5.6,50.8,24,61,47.5Z"/>
              <ellipse class="cls-81" cx="455.4" cy="263" rx="3" ry="6.5"/>
            </g>
          </g>
        </g>
      </g>
      <g id="Lager_7" class="cls-76">
        <g>
          <g>
            <path d="M149.7,322.6h2v5.3c-1.6,1.3-3.4,2.6-5.6,3.9s-4.5,2.5-7.1,3.4c-2.6.9-5.3,1.4-8.2,1.4-5.7,0-10.7-1.2-14.9-3.5s-7.6-5.7-9.9-10.2c-2.3-4.5-3.5-9.8-3.5-16.1s1.2-11.4,3.7-15.9c2.5-4.5,5.8-8,10.1-10.5s9.2-3.7,14.6-3.7,4.2.2,6.6.5,4.7.7,7,1.2c2.3.5,4.2.9,5.7,1.3v14.6h-4.7l-1.6-8.2c0-.4-.3-.8-.7-1.1s-.8-.5-1.3-.8c-1.7-.9-3.5-1.5-5.4-2s-4.1-.7-6.4-.7c-5.5,0-9.9,1.9-13.4,5.8s-5.2,9.7-5.2,17.6,1.8,14.6,5.5,18.9,9,6.4,16,6.4,4.4-.4,6.2-1.1c1.8-.7,3.6-1.7,5.2-2.8,1.6-1.2,3.3-2.5,5-3.8Z"/>
            <path d="M159.9,335.4v-3l6.2-2c.4-.1.8-.4,1.1-.7s.5-.8.5-1.3v-43.5c0-.6-.1-1-.4-1.3s-.6-.5-1.1-.6l-6.2-2v-2.9h23.8v2.9l-6.2,2c-.4.1-.8.4-1.1.7-.3.3-.5.7-.5,1.3v45.6h20.6c.4,0,.8-.1,1.2-.5s.5-.7.6-1.2l1.8-11.8h4.8v18.3h-45.1Z"/>
            <path d="M239.6,336.7c-5.9,0-10.9-1.2-15.1-3.7-4.1-2.5-7.2-5.9-9.4-10.4-2.1-4.5-3.2-9.8-3.2-16s1.1-11,3.3-15.5,5.4-8,9.5-10.6,9.1-3.9,14.9-3.9,11.5,1.3,15.6,3.9,7.1,6.2,9.1,10.7,3,9.6,3,15.3-.5,7.5-1.6,11.1-2.7,6.8-4.9,9.7-5.1,5.1-8.6,6.8c-3.5,1.7-7.7,2.5-12.6,2.5ZM240.3,332c3.9,0,7.2-1,9.8-3s4.6-4.9,5.9-8.5,2-7.8,2-12.5-.7-10.1-2.1-14.1-3.5-7-6.4-9.2-6.4-3.2-10.8-3.2-7.5,1.1-10.1,3.2-4.5,5-5.7,8.6-1.8,7.6-1.8,11.9.7,10,2.1,14.1,3.5,7.1,6.3,9.4c2.8,2.2,6.4,3.4,10.8,3.4Z"/>
            <path d="M298,336.2l-20.3-51.4c-.2-.4-.4-.8-.7-1.2-.3-.4-.7-.7-1.2-.9l-4.2-1.8v-2.9h21.2v2.9l-6.7,2.4,14.4,36.7,1.5,5.3h.6l15.8-41.8-6.7-2.6v-2.9h17.9v2.9l-4.1,1.9c-.4.2-.8.5-1.2.8-.4.4-.6.8-.8,1.2l-16.4,41.8-4.5,9.5h-4.6Z"/>
            <path d="M334.2,335.4v-3l6.5-2c.5-.2.9-.4,1.1-.7.3-.3.4-.7.4-1.3v-43.5c0-.6-.1-1-.4-1.3s-.6-.5-1.1-.6l-6.5-2v-2.9h24.4v2.9l-6.4,2c-.4.1-.8.4-1.1.7s-.5.7-.5,1.3v43.5c0,.6.1,1,.5,1.3s.7.5,1.1.7l6.4,2v3h-24.4Z"/>
          </g>
          <g>
            <path class="cls-61" d="M314,398.2v-2l4.1-1.3c.3,0,.5-.2.7-.4.2-.2.3-.5.3-.9v-29c0-.4-.1-.7-.3-.9s-.4-.3-.7-.4l-4.1-1.4v-2h15.4c3.8,0,6.6.4,8.6,1.2s3.4,1.9,4.1,3.1c.8,1.3,1.1,2.7,1.1,4.1,0,2.4-.7,4.4-2.2,6s-3.4,2.7-5.9,3.3v.2c2,.1,3.9.5,5.5,1.3s2.9,1.8,3.8,3.2c.9,1.3,1.4,2.9,1.4,4.7s-.4,4-1.3,5.5c-.9,1.4-2,2.6-3.5,3.4-1.5.8-3.2,1.4-5,1.7-1.9.3-3.8.5-5.8.5h-16.2ZM324.7,363.2v13.9h2.8c3.7,0,6.3-.6,7.8-1.7s2.1-2.7,2.1-4.7-.7-4.5-2.1-5.7c-1.4-1.2-3.6-1.8-6.7-1.8h-3.9ZM324.7,380.1v14.9h6.1c3,0,5.2-.5,6.6-1.6,1.5-1.1,2.2-2.9,2.2-5.4s-.8-5-2.3-6.1-4.1-1.8-7.8-1.8h-4.8Z"/>
            <path class="cls-61" d="M351.9,398.2v-2l4.1-1.3c.3,0,.5-.2.7-.4.2-.2.3-.5.3-.9v-29c0-.4-.1-.7-.3-.9s-.4-.3-.7-.4l-4.1-1.4v-2h15.6c2.9,0,5.3.3,7.1.9s3.3,1.3,4.3,2.3c1,.9,1.7,2,2.1,3.1.4,1.1.6,2.3.6,3.4,0,2.1-.5,3.9-1.4,5.4-.9,1.5-2.1,2.7-3.4,3.5s-2.7,1.5-4.1,1.8l-4.3,1.8-6.1-1.2.2-2.9c.2,0,.5.1,1.1.2.6,0,1.2.1,1.9.1s1.2,0,1.6,0c1.9,0,3.5-.4,4.8-1,1.2-.7,2.2-1.6,2.8-2.8.6-1.2.9-2.4.9-3.7,0-2.7-.8-4.6-2.3-5.8-1.5-1.2-3.8-1.8-6.7-1.8h-4v30.4c0,.4.1.7.3.9.2.2.4.4.7.4l4.2,1.3v2h-15.9ZM389.1,398.2h-6.5c-1.2,0-2.1-.1-2.7-.3-.6-.2-1.1-.6-1.5-1-.4-.5-.9-1.2-1.6-2.1l-9.6-13.2,5.4-1.7,10,13.3c.2.3.5.6,1,1s.9.6,1.2.8l4.1,1.2v2h0Z"/>
            <path class="cls-61" d="M388.6,398.2v-2l2.7-1.2c.7-.3,1.1-.8,1.4-1.5l10.9-27.8,3.1-6.4h3l13.5,34.2c.1.3.3.6.5.9.2.3.5.5.8.6l2.8,1.1v2h-14.1v-2l4.5-1.5-9.5-24.5-1-3.6h-.5l-10.5,27.9,4.5,1.7v2h-12ZM399.3,384.8l1.3-3.7h12.3l1.3,3.7h-14.9Z"/>
            <path class="cls-61" d="M434.5,398.2v-2l4.4-1.3c.3,0,.6-.2.8-.4s.3-.5.3-.9v-9.7l-10.9-19.4c-.1-.3-.3-.5-.5-.8s-.5-.5-.8-.6l-3-1.2v-2h14.1v2l-4.4,1.6,7.7,13.2,1.5,3.3h.4l9.1-16.4-4.4-1.7v-2h12v2l-2.9,1.2c-.3.1-.5.3-.8.6-.2.3-.4.5-.6.8l-11,19.2v9.9c0,.4,0,.7.3.9.2.2.4.4.7.4l4.4,1.3v2h-16.5Z"/>
          </g>
          <path class="cls-31" d="M398,315.5l1.3.7c.2.1-3.6,11-3.6,11l-4.5-1.7,6.7-10Z"/>
          <path class="cls-55" d="M492.1,316.9c0,8-7,14-14,20-.6.5-1.2,1-1.8,1.5-14.6,11.6-28.3,11.5-56.2,11.5s-29.7-3.9-42-10.9c-1.7-1,4.6-18.9,16-14.1,19,8,28,14,38,8,36.5-21.9-13-44-25-45-.3,0-.6,0-.9,0-15-.9-16.9,7.1-20.7,14-2.1,3.7-4.7,7.1-10.2,8.6-.7.2-1.5.4-2.2.5-9.5,1.5-2.1-33.6-5-43-1.9-6.2-32,1-32-6,0-10.3,3.4-19.7,9.1-27.8h0c1.1-1.6,2.3-3.2,3.6-4.7,2.1-2.4,4.4-4.7,6.9-6.8,18.5-16,47-24,71.4-19.7,31.9,5.6,50.9,24.1,61.1,47.5,5,11.5,7.9,24.1,9.1,37.1.5,5.6-5.2,24.1-5.2,29.4Z"/>
          <path class="cls-31" d="M450.6,308.4c6.1,13.8,9,29-30,29s-20.9-3.7-28.6-7.5c-2-1,6.5-7.5,6.5-7.5,0,0,14,11.6,23,12,21,1,29-26,8-35-9.9-4.3-28.5-8.9-24.5-13.6,5.4-6.5,19.9-8.6,13.4-5.2-16.9,8.7,26.1,14.2,32.2,27.8Z"/>
          <path class="cls-74" d="M445.1,290.9c20.8,3.3,32.2,9.9,32,16-.3,12.2,2,18-.8,31.5-14.6,11.6-28.3,11.5-56.2,11.5s-29.7-3.9-42-10.9c-1.7-1,6.9-22.5,16-14.1,13,12,32,20.2,46,8,8.6-7.5,8.8-22.5,4-29-8-10.8-29.5-15.4-37-16"/>
          <path class="cls-96" d="M482.3,272l-18.6-6c-1.4-.5-2.7-1.6-3.5-3.2l-.7-1.3c-.8-1.5,0-3.6,1.5-3.6h18.8c3.5,0,6.4,3.7,6.4,8.2v1.9c0,2.6-1.9,4.5-3.9,3.8Z"/>
          <path class="cls-31" d="M438.1,241.8l-1.3-.8c-.2-.1-7.6,8.7-7.6,8.7l3.8,2.9,5.1-10.9Z"/>
          <path class="cls-31" d="M415.1,289.9c-8-1.8-15.2-9.2-16.2-16.2-.7-5,2-8,7-12,4.8-3.9,27.7-15.3,27.7-15.3,0,0-8.5-5.5-15.5-5.5-14.9,0-25.7,10.7-26.5,25.6-1,16.9,12,25.9,30,28.9"/>
          <circle class="cls-94" cx="417.6" cy="267.4" r="22.5"/>
          <path class="cls-91" d="M488.2,250.5c-51.3-34.2-130.1-28.5-130.1-28.5-.8,0-1.6.3-2.4.7,18.5-16,47-24,71.4-19.7,31.8,5.6,50.9,24.1,61.1,47.5Z"/>
          <ellipse class="cls-81" cx="480.1" cy="264.4" rx="3" ry="6.5"/>
        </g>
      </g>
      <g>
        <g>
          <path d="M307.6,77c.6.1.9.4.8,1.1l-.5,3.4c-.1.6-.4.8-.9.8h-10.5c-8.3,0-10.3,3.3-12.1,14.7-1.8,11.4-.9,14.7,7.4,14.7h10.4c.5,0,.8.3.7.8l-.5,3.4c-.1.7-.5,1.1-1.2,1.2-2.7.4-6.2.6-10.3.6-13.3,0-15.9-4.8-13.4-20.7,2.5-16,6.6-20.7,20-20.7,4,0,7.5.2,10.1.6Z"/>
          <path d="M320.6,76.6c.5,0,.8.3.7.8l-5.4,34.1h18.5c.5,0,.8.3.6.8l-.7,4.4c0,.5-.4.8-.9.8h-24.6c-.5,0-.8-.3-.6-.8l6.2-39.3c0-.5.4-.8.9-.8h5.3Z"/>
          <path d="M373.4,97.1c-2.5,15.9-6.7,20.6-20.1,20.6s-16-4.7-13.5-20.6c2.5-16,6.7-20.8,20-20.8s16,4.8,13.5,20.8ZM346.7,97.1c-1.8,11.3-.8,14.6,7.5,14.6s10.4-3.4,12.2-14.6c1.9-11.4.9-14.8-7.5-14.8-8.3,0-10.4,3.4-12.2,14.8Z"/>
          <path d="M412.8,76.6c.6,0,.8.2.5.8l-14.2,34c-2.4,5.6-3.3,6.3-9.2,6.3s-6.2-.6-6.8-6.3l-3.8-34c0-.7.2-.8.8-.8h5.5c.5,0,.5.2.6.8l3.5,32.3c.2,1.9.3,2.2,1.2,2.2s1.4-.4,2.2-2.2l13.5-32.3c.3-.7.4-.8.9-.8,0,0,5.4,0,5.4,0Z"/>
          <path d="M424.9,76.6c.5,0,.8.3.7.8l-6.2,39.2c-.1.6-.4.8-1,.8h-5.2c-.5,0-.8-.3-.7-.8l6.2-39.2c0-.5.4-.8.9-.8h5.2Z"/>
        </g>
        <g>
          <path class="cls-61" d="M420.3,133.2c-.5,3.2-1.7,5.3-4,5.9h0c2.9.6,3.3,3.5,2.8,6.4-.9,5.9-4.4,7.2-9.7,7.2s-7.4,0-9.5-.1c-.2,0-.3,0-.3-.3l4.1-25.8c0-.2.1-.3.4-.3,2.1-.1,7-.1,8.4-.1,5.8,0,8.7,1.5,7.8,7.3ZM403.4,140.1l-1.7,10.9h7.9c4.2,0,6.7-1,7.4-5.4.7-4.4-1.2-5.5-4.8-5.5h-8.8ZM405.4,127.7l-1.7,10.6h7.4c4.5,0,6.5-.5,7.2-5,.8-4.6-1.6-5.6-6.2-5.6h-6.7Z"/>
          <path class="cls-61" d="M443.4,134.2c-1,5.9-2.8,7.6-7.4,8l4.7,9.9c.1.2,0,.4-.3.4h-1.2c-.5,0-.6-.1-.8-.5l-4.6-9.6h-7l-1.6,9.8c0,.2-.1.3-.4.3h-1.3c-.2,0-.4,0-.3-.4l4.1-25.8c0-.2.1-.3.4-.3,2.1-.1,4.7-.1,6.2-.1,8.1,0,10.7.8,9.5,8.3ZM429.1,127.7l-2.1,12.9h4.4c6.9,0,9-.3,10-6.4,1-6.1-1-6.6-7.9-6.6,0,0-4.4,0-4.4,0Z"/>
          <path class="cls-61" d="M461,130.1l2.7,22.1c0,.3,0,.4-.3.4h-1.4c-.2,0-.2,0-.2-.3l-1.1-8.6h-11.5l-3.8,8.6c-.1.2-.1.3-.4.3h-1.5c-.2,0-.3,0-.2-.4l9.8-22.1c1.5-3.5,2-4.1,4.6-4.1,2.7,0,3,.5,3.4,4.1ZM454.9,130.5l-5,11.4h10.6l-1.4-11.4c-.3-2.4-.4-2.8-1.8-2.8-1.2,0-1.5.4-2.5,2.8Z"/>
          <path class="cls-61" d="M488.3,126.2c.3,0,.4.1.2.5l-12.5,18.3-1.2,7.3c0,.2-.2.3-.4.3h-1.3c-.2,0-.3-.1-.3-.4l1.2-7.3-6.7-18.3c-.1-.3,0-.5.3-.5h1.4c.3,0,.4,0,.5.4l5.8,16.1,10.9-16.1c.1-.2.3-.3.6-.3h1.5Z"/>
        </g>
        <path class="cls-8" d="M480.9,97.4c3.6,8.2,5.3,17.2-17.8,17.2s-12.4-2.2-17-4.5c-1.2-.6,3.9-4.5,3.9-4.5,0,0,8.3,6.9,13.7,7.1,12.5.6,17.2-15.4,4.8-20.8-5.9-2.5-16.9-5.3-14.6-8.1,3.2-3.8,11.8-5.1,7.9-3.1-10,5.2,15.5,8.4,19.1,16.5Z"/>
        <path class="cls-55" d="M505.5,102.4c0,4.8-4.1,8.3-8.3,11.9-.4.3-.7.6-1.1.9-8.7,6.9-16.8,6.8-33.4,6.8s-17.6-2.3-24.9-6.5c-1-.6,4.1-13.4,9.5-8.4,8.9,8.3,18.4,12.5,24.3,8.9,21.6-13,.6-32.6-16.6-30.9-.2,0-.4,0-.5,0-8.9-.6-10,4.2-12.3,8.3-1.2,2.2-2.8,4.2-6,5.1-.4.1-.9.2-1.3.3-5.6.9-1.3-19.9-3-25.5-1.1-3.7-19,.6-19-3.6,0-6.1,2-11.7,5.4-16.5h0c.7-1,1.4-1.9,2.1-2.8,1.2-1.4,2.6-2.8,4.1-4,11-9.5,27.9-14.2,42.4-11.7,18.9,3.3,30.2,14.3,36.2,28.2,3,6.8,4.7,14.3,5.4,22,.3,3.4-3.1,14.3-3.1,17.5Z"/>
        <path class="cls-8" d="M459.8,86.4c-4.8-1.1-9-5.4-9.6-9.6-.4-3,1.2-4.8,4.1-7.1,2.9-2.3,15.9-8.5,15.9-8.5,0,0-3.6-3.6-8.6-3.9-8.8-.5-15.2,6.4-15.8,15.2-.6,10,7.1,15.4,17.8,17.1"/>
        <path class="cls-74" d="M477.6,87c12.4,1.9,19.1,5.9,19,9.5-.2,7.2,1.2,10.7-.5,18.7-8.7,6.9-16.8,6.8-33.4,6.8s-17.6-2.3-24.9-6.5c-1-.6,4.1-13.4,9.5-8.4,7.7,7.1,19,12,27.3,4.8,5.1-4.4,5.2-13.3,2.4-17.2-4.8-6.4-17.5-9.1-22-9.5"/>
        <path class="cls-96" d="M499.7,75.8l-11.1-3.6c-.9-.3-1.6-.9-2.1-1.9l-.4-.8c-.5-.9,0-2.1.9-2.1h11.2c2.1,0,3.8,2.2,3.8,4.9v1.2c0,1.5-1.1,2.7-2.3,2.3Z"/>
        <circle class="cls-94" cx="461.3" cy="73.1" r="13.4"/>
        <path class="cls-91" d="M503.2,63c-30.4-20.3-77.2-16.9-77.2-16.9-.5,0-.9.2-1.4.4,11-9.5,27.9-14.2,42.4-11.7,18.9,3.3,30.2,14.3,36.2,28.2Z"/>
      </g>
      <g>
        <rect x="229.2" y="294.2" width="309.2" height="133.5"/>
        <g>
          <path class="cls-12" d="M305.4,344.7c.6.1.9.4.8,1.1l-.5,3.4c-.1.6-.4.9-.9.9h-10.5c-8.3,0-10.3,3.3-12.1,14.7-1.8,11.4-.9,14.7,7.4,14.7h10.4c.5,0,.8.3.7.8l-.5,3.4c-.1.7-.5,1.1-1.2,1.2-2.7.4-6.2.6-10.3.6-13.3,0-15.9-4.8-13.4-20.7,2.5-16,6.6-20.7,20-20.7s7.5.2,10.1.7Z"/>
          <path class="cls-12" d="M318.5,344.4c.5,0,.8.3.7.8l-5.4,34.1h18.5c.5,0,.8.3.6.8l-.7,4.4c0,.5-.4.8-.9.8h-24.6c-.5,0-.8-.3-.6-.8l6.2-39.3c0-.5.4-.8.9-.8h5.3Z"/>
          <path class="cls-12" d="M371.2,364.9c-2.5,15.9-6.7,20.6-20.1,20.6s-16-4.7-13.5-20.6c2.5-16,6.7-20.8,20-20.8,13.4,0,16,4.8,13.5,20.8ZM344.6,364.9c-1.8,11.3-.8,14.6,7.5,14.6s10.4-3.4,12.2-14.6c1.9-11.4.9-14.8-7.5-14.8s-10.4,3.4-12.2,14.8Z"/>
          <path class="cls-12" d="M410.7,344.4c.6,0,.8.2.5.9l-14.2,34c-2.4,5.6-3.3,6.3-9.2,6.3s-6.2-.6-6.8-6.3l-3.8-34c0-.7.2-.9.8-.9h5.5c.5,0,.5.2.6.9l3.5,32.3c.2,1.9.3,2.2,1.2,2.2s1.4-.4,2.2-2.2l13.5-32.3c.3-.7.4-.9.9-.9h5.4Z"/>
          <path class="cls-12" d="M422.7,344.4c.5,0,.8.3.7.8l-6.2,39.2c-.1.6-.4.9-1,.9h-5.2c-.5,0-.8-.3-.7-.9l6.2-39.2c0-.5.4-.8.9-.8h5.2Z"/>
        </g>
        <g>
          <path class="cls-58" d="M418.1,401c-.5,3.2-1.7,5.3-4,5.9h0c2.9.6,3.3,3.5,2.8,6.4-.9,5.9-4.4,7.2-9.7,7.2s-7.4,0-9.5-.1c-.2,0-.3,0-.3-.3l4.1-25.8c0-.2.1-.3.4-.3,2.1-.1,7-.1,8.4-.1,5.8,0,8.7,1.5,7.8,7.3ZM401.3,407.8l-1.7,10.9h7.9c4.2,0,6.7-1,7.4-5.5.7-4.4-1.2-5.5-4.8-5.5h-8.8ZM403.2,395.5l-1.7,10.6h7.4c4.5,0,6.5-.5,7.2-5,.8-4.6-1.6-5.6-6.2-5.6h-6.7Z"/>
          <path class="cls-58" d="M441.2,402c-1,5.9-2.8,7.5-7.4,8l4.7,9.9c.1.2,0,.4-.3.4h-1.2c-.5,0-.6-.1-.8-.5l-4.6-9.6h-7l-1.6,9.8c0,.2-.1.3-.4.3h-1.3c-.2,0-.4,0-.3-.4l4.1-25.8c0-.2.1-.3.4-.3,2.1-.1,4.7-.1,6.2-.1,8.1,0,10.7.8,9.5,8.3ZM427,395.5l-2.1,12.9h4.4c6.9,0,9-.3,10-6.4,1-6-1-6.5-7.9-6.5h-4.4Z"/>
          <path class="cls-58" d="M458.9,397.8l2.7,22.1c0,.3,0,.4-.3.4h-1.4c-.2,0-.2,0-.2-.3l-1.1-8.6h-11.5l-3.8,8.6c-.1.2-.1.3-.4.3h-1.5c-.2,0-.3,0-.2-.4l9.8-22.1c1.5-3.5,2-4.1,4.6-4.1s3,.5,3.4,4.1ZM452.7,398.3l-5,11.4h10.6l-1.4-11.4c-.3-2.4-.4-2.8-1.8-2.8s-1.5.4-2.5,2.8Z"/>
          <path class="cls-58" d="M486.1,393.9c.3,0,.4.1.2.5l-12.5,18.3-1.2,7.3c0,.2-.2.3-.4.3h-1.3c-.2,0-.3-.1-.3-.4l1.2-7.3-6.7-18.3c-.1-.3,0-.5.3-.5h1.4c.3,0,.4,0,.5.4l5.8,16.1,10.9-16.1c.1-.2.3-.3.6-.3h1.5Z"/>
        </g>
        <path class="cls-11" d="M478.8,365.1c3.6,8.2,5.3,17.2-17.8,17.2s-12.4-2.2-17-4.5c-1.2-.6,3.9-4.5,3.9-4.5,0,0,8.3,6.9,13.7,7.1,12.5.6,17.2-15.4,4.8-20.8-5.9-2.5-16.9-5.3-14.6-8.1,3.2-3.9,11.8-5.1,7.9-3.1-10,5.2,15.5,8.4,19.1,16.5Z"/>
        <path class="cls-82" d="M503.4,370.2c0,4.8-4.1,8.3-8.3,11.9-.4.3-.7.6-1.1.9-8.7,6.9-16.8,6.8-33.4,6.8s-17.6-2.3-24.9-6.5c-1-.6,4.1-13.4,9.5-8.4,8.9,8.3,18.4,12.5,24.3,8.9,21.6-13,.6-32.6-16.6-30.9-.2,0-.4,0-.5,0-8.9-.5-10,4.2-12.3,8.3-1.2,2.2-2.8,4.2-6,5.1-.4.1-.9.2-1.3.3-5.6.9-1.3-20-3-25.5-1.1-3.7-19,.6-19-3.6,0-6.1,2-11.7,5.4-16.5h0c.7-1,1.4-1.9,2.1-2.8,1.2-1.4,2.6-2.8,4.1-4,11-9.5,27.9-14.2,42.4-11.7,18.9,3.3,30.2,14.3,36.2,28.2,3,6.8,4.7,14.3,5.4,22,.3,3.3-3.1,14.3-3.1,17.5Z"/>
        <path class="cls-11" d="M457.7,354.2c-4.8-1.1-9-5.5-9.6-9.6-.4-3,1.2-4.8,4.1-7.1,2.9-2.3,15.9-8.5,15.9-8.5,0,0-3.6-3.6-8.6-3.9-8.8-.5-15.2,6.4-15.8,15.2-.6,10,7.1,15.4,17.8,17.1"/>
        <path class="cls-18" d="M475.5,354.8c12.4,2,19.1,5.9,19,9.5-.2,7.2,1.2,10.7-.5,18.7-8.7,6.9-16.8,6.8-33.4,6.8s-17.6-2.3-24.9-6.5c-1-.6,4.1-13.4,9.5-8.4,7.7,7.1,19,12,27.3,4.8,5.1-4.5,5.2-13.4,2.4-17.2-4.8-6.4-17.2-9.5-21.6-9.8"/>
        <path class="cls-96" d="M497.5,343.5l-11.1-3.6c-.9-.3-1.6-1-2.1-1.9l-.4-.8c-.5-.9,0-2.1.9-2.1h11.2c2.1,0,3.8,2.2,3.8,4.9v1.1c0,1.5-1.1,2.7-2.3,2.3Z"/>
        <circle class="cls-29" cx="459.2" cy="340.8" r="13.4"/>
        <path class="cls-79" d="M501.1,330.8c-30.4-20.3-77.2-16.9-77.2-16.9-.5,0-.9.1-1.4.4,11-9.5,27.9-14.2,42.4-11.7,18.9,3.3,30.2,14.3,36.3,28.2Z"/>
      </g>
      <g>
        <path class="cls-7" d="M158.8,111.8c4.1,9.5,6.1,20-20.4,20s-14.2-2.5-19.4-5.2c-1.4-.7,4.4-5.2,4.4-5.2,0,0,9.5,8,15.6,8.3,14.2.7,19.7-17.9,5.4-24.1-6.8-2.9-19.3-6.1-16.6-9.4,3.7-4.5,13.5-5.9,9.1-3.6-11.5,6,17.7,9.8,21.8,19.2Z"/>
        <path class="cls-55" d="M186.9,117.7c0,5.5-4.8,9.7-9.5,13.8-.4.4-.8.7-1.2,1-9.9,8-19.2,7.9-38.1,7.9s-20.1-2.7-28.5-7.5c-1.2-.7,4.7-15.6,10.9-9.7,10.2,9.7,21,14.5,27.8,10.4,24.7-15.1.7-37.9-19-35.9-.2,0-.4,0-.6,0-10.2-.6-11.4,4.9-14,9.7-1.4,2.6-3.2,4.9-6.9,5.9-.5.1-1,.2-1.5.3-6.4,1-1.4-23.2-3.4-29.7-1.3-4.3-21.7.7-21.7-4.1,0-7.1,2.3-13.6,6.2-19.2h0c.8-1.1,1.6-2.2,2.5-3.2,1.4-1.7,3-3.2,4.7-4.7,12.6-11,31.9-16.5,48.4-13.6,21.6,3.8,34.5,16.6,41.4,32.8,3.4,7.9,5.4,16.7,6.2,25.6.4,3.9-3.5,16.6-3.5,20.3Z"/>
        <path class="cls-7" d="M134.7,99.1c-5.4-1.2-10.3-6.3-11-11.2-.5-3.5,1.4-5.5,4.8-8.3,3.3-2.7,18.1-9.9,18.1-9.9,0,0-4.1-4.1-9.8-4.5-10.1-.6-17.4,7.4-18,17.7-.7,11.6,8.2,17.8,20.4,19.9"/>
        <path class="cls-74" d="M155.1,99.8c14.1,2.3,21.8,6.8,21.7,11-.2,8.4,1.4,12.4-.5,21.7-9.9,8-19.2,7.9-38.1,7.9s-20.1-2.7-28.5-7.5c-1.2-.7,4.7-15.5,10.9-9.7,8.8,8.3,21.7,13.9,31.2,5.5,5.9-5.2,6-15.5,2.7-20-5.4-7.5-20-10.6-25.1-11"/>
        <path class="cls-96" d="M180.3,86.7l-12.6-4.1c-1-.3-1.8-1.1-2.4-2.2l-.5-.9c-.5-1.1,0-2.5,1-2.5h12.8c2.4,0,4.4,2.6,4.4,5.7v1.3c0,1.8-1.3,3.1-2.6,2.7Z"/>
        <ellipse class="cls-94" cx="136.4" cy="83.6" rx="15.3" ry="15.5"/>
        <path class="cls-91" d="M184.3,71.9c-34.8-23.6-88.3-19.7-88.3-19.7-.5,0-1.1.2-1.6.5,12.6-11,31.9-16.5,48.4-13.6,21.6,3.8,34.5,16.6,41.4,32.8Z"/>
      </g>
      <g>
        <rect x="61.6" y="294.4" width="158.5" height="130.9"/>
        <g>
          <path class="cls-5" d="M160.2,380.6c4.2,9.5,6.2,20.1-20.8,20.1s-14.4-2.5-19.8-5.2c-1.4-.7,4.5-5.2,4.5-5.2,0,0,9.7,8,15.9,8.3,14.5.7,20.1-18,5.5-24.2-6.9-3-19.7-6.2-17-9.4,3.7-4.5,13.8-6,9.2-3.6-11.7,6,18.1,9.8,22.3,19.3Z"/>
          <path class="cls-82" d="M188.9,386.5c0,5.5-4.8,9.7-9.7,13.8-.4.4-.8.7-1.2,1-10.1,8-19.6,8-38.9,8s-20.5-2.7-29.1-7.5c-1.2-.7,4.8-15.6,11.1-9.8,10.4,9.7,21.4,14.5,28.4,10.4,25.2-15.1.7-38.1-19.4-36-.2,0-.4,0-.6,0-10.4-.6-11.7,4.9-14.3,9.7-1.4,2.6-3.2,4.9-7,5.9-.5.1-1,.2-1.6.3-6.6,1-1.5-23.3-3.5-29.8-1.3-4.3-22.1.7-22.1-4.1,0-7.1,2.3-13.6,6.3-19.2h0c.8-1.1,1.6-2.2,2.5-3.2,1.4-1.7,3-3.2,4.7-4.7,12.8-11.1,32.5-16.6,49.4-13.6,22,3.9,35.2,16.6,42.3,32.9,3.4,7.9,5.4,16.7,6.3,25.6.4,3.9-3.6,16.7-3.6,20.3Z"/>
          <path class="cls-5" d="M135.6,367.8c-5.5-1.2-10.5-6.4-11.2-11.2-.5-3.5,1.4-5.5,4.8-8.3,3.3-2.7,18.5-9.9,18.5-9.9,0,0-4.1-4.1-10-4.5-10.3-.6-17.8,7.4-18.4,17.7-.7,11.7,8.3,17.9,20.8,20"/>
          <path class="cls-18" d="M156.4,368.5c14.4,2.3,22.3,6.8,22.1,11.1-.2,8.4,1.4,12.5-.6,21.8-10.1,8-19.6,8-38.9,8s-20.5-2.7-29.1-7.5c-1.2-.7,4.8-15.6,11.1-9.8,9,8.3,22.1,14,31.8,5.5,6-5.2,6.1-15.6,2.8-20.1-5.6-7.5-20-11-25.2-11.5"/>
          <path class="cls-96" d="M182.1,355.4l-12.9-4.1c-1-.3-1.9-1.1-2.4-2.2l-.5-.9c-.6-1,0-2.5,1-2.5h13c2.4,0,4.4,2.5,4.4,5.7v1.3c0,1.8-1.3,3.1-2.7,2.7Z"/>
          <circle class="cls-29" cx="137.4" cy="352.2" r="15.6"/>
          <path class="cls-79" d="M186.2,340.5c-35.5-23.6-90-19.8-90-19.8-.5,0-1.1.2-1.7.5,12.8-11.1,32.5-16.6,49.4-13.6,22,3.9,35.2,16.6,42.3,32.9Z"/>
        </g>
      </g>
      <g>
        <rect x="61.7" y="433.6" width="158.5" height="130.9"/>
        <g>
          <path class="cls-9" d="M160.3,519.9c4.2,9.5,6.2,20.1-20.8,20.1s-14.4-2.5-19.8-5.2c-1.4-.7,4.5-5.2,4.5-5.2,0,0,9.7,8,15.9,8.3,14.5.7,20.1-18,5.5-24.2-6.9-3-19.7-6.2-17-9.4,3.7-4.5,13.8-6,9.2-3.6-11.7,6,18.1,9.8,22.3,19.2Z"/>
          <path class="cls-12" d="M189.1,525.7c0,5.5-4.8,9.7-9.7,13.8-.4.3-.8.7-1.2,1-10.1,8-19.6,8-38.9,8s-20.5-2.7-29.1-7.5c-1.2-.7,4.8-15.6,11.1-9.8,10.4,9.7,21.4,14.5,28.4,10.4,25.2-15.1.7-38.1-19.4-36-.2,0-.4,0-.6,0-10.4-.6-11.7,4.9-14.3,9.7-1.4,2.6-3.2,4.9-7,5.9-.5.1-1,.2-1.6.3-6.6,1-1.5-23.3-3.5-29.8-1.3-4.3-22.1.7-22.1-4.1,0-7.1,2.3-13.6,6.3-19.2h0c.8-1.1,1.6-2.2,2.5-3.2,1.4-1.7,3-3.2,4.7-4.7,12.8-11.1,32.5-16.6,49.4-13.6,22,3.9,35.2,16.6,42.3,32.9,3.4,7.9,5.4,16.7,6.3,25.6.4,3.9-3.6,16.7-3.6,20.3Z"/>
          <path class="cls-9" d="M135.8,507.1c-5.5-1.2-10.5-6.4-11.2-11.2-.5-3.5,1.4-5.5,4.8-8.3,3.3-2.7,18.5-9.9,18.5-9.9,0,0-4.1-4.1-10-4.5-10.3-.6-17.8,7.4-18.4,17.7-.7,11.7,8.3,17.9,20.8,20"/>
          <path class="cls-12" d="M156.5,507.8c14.4,2.3,22.3,6.8,22.1,11.1-.2,8.4,1.4,12.5-.6,21.8-10.1,8-19.6,8-38.9,8s-20.5-2.7-29.1-7.5c-1.2-.7,4.8-15.6,11.1-9.8,9,8.3,22.1,14,31.8,5.5,6-5.2,6.1-15.6,2.8-20.1-5.6-7.5-20-11-25.2-11.5"/>
          <path d="M182.2,494.6l-12.9-4.1c-1-.3-1.9-1.1-2.4-2.2l-.5-.9c-.6-1,0-2.5,1-2.5h13c2.4,0,4.4,2.5,4.4,5.7v1.3c0,1.8-1.3,3.1-2.7,2.7Z"/>
          <circle cx="137.5" cy="491.5" r="15.6"/>
          <path class="cls-12" d="M186.3,479.8c-35.5-23.6-90-19.8-90-19.8-.5,0-1.1.2-1.7.5,12.8-11.1,32.5-16.6,49.4-13.6,22,3.9,35.2,16.6,42.3,32.9Z"/>
        </g>
      </g>
      <g>
        <rect x="229" y="432.3" width="309.2" height="133.5"/>
        <g>
          <path class="cls-12" d="M305.2,482.8c.6.1.9.4.8,1.1l-.5,3.4c-.1.6-.4.9-.9.9h-10.5c-8.3,0-10.3,3.3-12.1,14.7-1.8,11.4-.9,14.7,7.4,14.7h10.4c.5,0,.8.3.7.8l-.5,3.4c-.1.7-.5,1.1-1.2,1.2-2.7.4-6.2.6-10.3.6-13.3,0-15.9-4.8-13.4-20.7,2.5-16,6.6-20.7,20-20.7,4,0,7.5.2,10.1.7Z"/>
          <path class="cls-12" d="M318.3,482.4c.5,0,.8.3.7.8l-5.4,34.1h18.5c.5,0,.8.3.6.8l-.7,4.4c0,.5-.4.8-.9.8h-24.6c-.5,0-.8-.3-.6-.8l6.2-39.3c0-.5.4-.8.9-.8h5.3Z"/>
          <path class="cls-12" d="M371,502.9c-2.5,15.9-6.7,20.6-20.1,20.6s-16-4.7-13.5-20.6c2.5-16,6.7-20.8,20-20.8,13.4,0,16,4.8,13.5,20.8ZM344.4,502.9c-1.8,11.3-.8,14.6,7.5,14.6s10.4-3.4,12.2-14.6c1.9-11.4.9-14.8-7.5-14.8s-10.4,3.4-12.2,14.8Z"/>
          <path class="cls-12" d="M410.5,482.4c.6,0,.8.2.5.9l-14.2,34c-2.4,5.6-3.3,6.3-9.2,6.3s-6.2-.6-6.8-6.3l-3.8-34c0-.7.2-.9.8-.9h5.5c.5,0,.5.2.6.9l3.5,32.3c.2,1.9.3,2.2,1.2,2.2s1.4-.4,2.2-2.2l13.5-32.3c.3-.7.4-.9.9-.9h5.4Z"/>
          <path class="cls-12" d="M422.5,482.4c.5,0,.8.3.7.8l-6.2,39.2c-.1.6-.4.8-1,.8h-5.2c-.5,0-.8-.3-.7-.8l6.2-39.2c0-.5.4-.8.9-.8h5.2Z"/>
        </g>
        <g>
          <path class="cls-73" d="M405.9,539.1c-.5,3.5-1.8,5.7-4.3,6.3h0c3.1.7,3.5,3.8,3,6.9-1,6.3-4.8,7.7-10.5,7.7s-8,0-10.2-.2c-.3,0-.3,0-.3-.3l4.4-27.8c0-.3.1-.3.4-.3,2.2-.1,7.5-.2,9.1-.2,6.2,0,9.4,1.6,8.4,7.8ZM387.8,546.4l-1.8,11.8h8.5c4.5,0,7.2-1,8-5.9.7-4.7-1.3-5.9-5.2-5.9h-9.5ZM389.9,533.2l-1.8,11.4h8c4.8,0,6.9-.6,7.7-5.4.8-4.9-1.7-6-6.7-6h-7.1Z"/>
          <path class="cls-73" d="M430.8,540.2c-1,6.3-3,8.1-8,8.6l5,10.6c.1.2,0,.5-.3.5h-1.3c-.5,0-.6-.2-.8-.5l-4.9-10.4h-7.5l-1.7,10.5c0,.3-.1.3-.4.3h-1.4c-.3,0-.4,0-.3-.4l4.4-27.7c0-.3.1-.3.4-.3,2.2-.1,5.1-.2,6.6-.2,8.8,0,11.5.8,10.2,8.9ZM415.4,533.2l-2.2,13.9h4.7c7.5,0,9.7-.3,10.8-6.8,1-6.5-1.1-7-8.5-7h-4.7Z"/>
          <path class="cls-73" d="M449.8,535.6l2.9,23.8c0,.3,0,.4-.3.4h-1.5c-.2,0-.3,0-.3-.3l-1.2-9.2h-12.4l-4.1,9.2c-.1.3-.1.3-.4.3h-1.6c-.3,0-.3,0-.2-.4l10.6-23.8c1.6-3.8,2.1-4.4,4.9-4.4,2.9,0,3.2.6,3.6,4.4ZM443.1,536.1l-5.4,12.2h11.4l-1.5-12.2c-.3-2.6-.4-3-1.9-3-1.3,0-1.6.4-2.7,3Z"/>
          <path class="cls-73" d="M479,531.5c.3,0,.5.2.2.5l-13.4,19.6-1.3,7.9c0,.2-.2.3-.4.3h-1.4c-.2,0-.3-.1-.3-.4l1.3-7.8-7.2-19.6c-.1-.3,0-.5.3-.5h1.5c.3,0,.4,0,.5.4l6.3,17.3,11.8-17.3c.1-.2.3-.3.6-.3h1.6Z"/>
        </g>
        <path class="cls-9" d="M478.6,503.2c3.6,8.2,5.3,17.2-17.8,17.2s-12.4-2.2-17-4.5c-1.2-.6,3.9-4.5,3.9-4.5,0,0,8.3,6.9,13.7,7.1,12.5.6,17.2-15.4,4.8-20.8-5.9-2.5-16.9-5.3-14.6-8.1,3.2-3.9,11.8-5.1,7.9-3.1-10,5.2,15.5,8.4,19.1,16.5Z"/>
        <path class="cls-12" d="M503.2,508.2c0,4.8-4.1,8.3-8.3,11.9-.4.3-.7.6-1.1.9-8.7,6.9-16.8,6.8-33.4,6.8s-17.6-2.3-24.9-6.5c-1-.6,4.1-13.4,9.5-8.4,8.9,8.3,18.4,12.5,24.3,8.9,21.6-13,.6-32.6-16.6-30.9-.2,0-.4,0-.5,0-8.9-.5-10,4.2-12.3,8.3-1.2,2.2-2.8,4.2-6,5.1-.4.1-.9.2-1.3.3-5.6.9-1.3-20-3-25.5-1.1-3.7-19,.6-19-3.6,0-6.1,2-11.7,5.4-16.5h0c.7-1,1.4-1.9,2.1-2.8,1.2-1.4,2.6-2.8,4.1-4,11-9.5,27.9-14.2,42.4-11.7,18.9,3.3,30.2,14.3,36.2,28.2,3,6.8,4.7,14.3,5.4,22,.3,3.3-3.1,14.3-3.1,17.4Z"/>
        <path class="cls-9" d="M457.5,492.2c-4.8-1.1-9-5.5-9.6-9.6-.4-3,1.2-4.8,4.1-7.1,2.9-2.3,15.9-8.5,15.9-8.5,0,0-3.6-3.6-8.6-3.9-8.8-.5-15.2,6.4-15.8,15.2-.6,10,7.1,15.4,17.8,17.1"/>
        <path class="cls-12" d="M475.3,492.8c12.4,2,19.1,5.9,19,9.5-.2,7.2,1.2,10.7-.5,18.7-8.7,6.9-16.8,6.8-33.4,6.8s-17.6-2.3-24.9-6.5c-1-.6,4.1-13.4,9.5-8.4,7.7,7.1,19,12,27.3,4.8,5.1-4.5,5.2-13.4,2.4-17.2-4.8-6.4-17.2-9.5-21.6-9.8"/>
        <path class="cls-96" d="M497.4,481.6l-11.1-3.6c-.9-.3-1.6-1-2.1-1.9l-.4-.8c-.5-.9,0-2.1.9-2.1h11.2c2.1,0,3.8,2.2,3.8,4.9v1.1c0,1.5-1.1,2.7-2.3,2.3Z"/>
        <circle cx="459" cy="478.9" r="13.4"/>
        <path class="cls-12" d="M500.9,468.8c-30.4-20.3-77.2-16.9-77.2-16.9-.5,0-.9.1-1.4.4,11-9.5,27.9-14.2,42.4-11.7,18.9,3.3,30.2,14.3,36.3,28.2Z"/>
      </g>
      <g>
        <g>
          <path d="M313.7,202.8c.6.1.9.4.8,1.1l-.5,3.4c-.1.6-.4.9-.9.9h-10.5c-8.3,0-10.3,3.3-12.1,14.7-1.8,11.4-.9,14.7,7.4,14.7h10.4c.5,0,.8.3.7.8l-.5,3.4c-.1.7-.5,1.1-1.2,1.2-2.7.4-6.2.6-10.3.6-13.3,0-15.9-4.8-13.4-20.7,2.5-16,6.6-20.7,20-20.7s7.5.2,10.1.6Z"/>
          <path d="M326.8,202.5c.5,0,.8.3.7.8l-5.4,34.1h18.5c.5,0,.8.3.6.8l-.7,4.4c0,.5-.4.8-.9.8h-24.6c-.5,0-.8-.3-.6-.8l6.2-39.3c0-.5.4-.8.9-.8h5.3Z"/>
          <path d="M379.5,223c-2.5,15.9-6.7,20.6-20.1,20.6s-16-4.7-13.5-20.6c2.5-16,6.7-20.8,20-20.8s16,4.8,13.5,20.8ZM352.9,223c-1.8,11.3-.8,14.6,7.5,14.6s10.4-3.4,12.2-14.6c1.9-11.4.9-14.8-7.5-14.8s-10.4,3.4-12.2,14.8Z"/>
          <path d="M419,202.5c.6,0,.8.2.5.9l-14.2,34c-2.4,5.6-3.3,6.3-9.2,6.3s-6.2-.6-6.8-6.3l-3.8-34c0-.7.2-.9.8-.9h5.5c.5,0,.5.2.6.9l3.5,32.3c.2,1.9.3,2.2,1.2,2.2s1.4-.4,2.2-2.2l13.5-32.3c.3-.7.4-.9.9-.9h5.4Z"/>
          <path d="M431,202.5c.5,0,.8.3.7.8l-6.2,39.2c-.1.6-.4.9-1,.9h-5.2c-.5,0-.8-.3-.7-.9l6.2-39.2c0-.5.4-.8.9-.8h5.2Z"/>
        </g>
        <g>
          <path class="cls-61" d="M426.4,259.1c-.5,3.2-1.7,5.3-4,5.9h0c2.9.6,3.3,3.5,2.8,6.4-.9,5.9-4.4,7.2-9.7,7.2s-7.4,0-9.5-.1c-.2,0-.3,0-.3-.3l4.1-25.8c0-.2.1-.3.4-.3,2.1-.1,7-.1,8.4-.1,5.8,0,8.7,1.5,7.8,7.3ZM409.6,265.9l-1.7,10.9h7.9c4.2,0,6.7-1,7.4-5.5.7-4.4-1.2-5.5-4.8-5.5h-8.8ZM411.6,253.6l-1.7,10.6h7.4c4.5,0,6.5-.5,7.2-5,.8-4.6-1.6-5.6-6.2-5.6h-6.7Z"/>
          <path class="cls-61" d="M449.5,260.1c-1,5.9-2.8,7.5-7.4,8l4.7,9.9c.1.2,0,.4-.3.4h-1.2c-.5,0-.6-.1-.8-.5l-4.6-9.6h-7l-1.6,9.8c0,.2-.1.3-.4.3h-1.3c-.2,0-.4,0-.3-.4l4.1-25.8c0-.2.1-.3.4-.3,2.1-.1,4.7-.1,6.2-.1,8.1,0,10.7.8,9.5,8.3ZM435.3,253.6l-2.1,12.9h4.4c6.9,0,9-.3,10-6.4,1-6.1-1-6.6-7.9-6.6h-4.4Z"/>
          <path class="cls-61" d="M467.2,255.9l2.7,22.2c0,.3,0,.4-.3.4h-1.4c-.2,0-.2,0-.2-.3l-1.1-8.6h-11.5l-3.8,8.6c-.1.2-.1.3-.4.3h-1.5c-.2,0-.3,0-.2-.4l9.8-22.1c1.5-3.5,2-4.1,4.6-4.1,2.7,0,3,.5,3.4,4.1ZM461,256.4l-5,11.4h10.6l-1.4-11.4c-.3-2.4-.4-2.8-1.8-2.8-1.2,0-1.5.4-2.5,2.8Z"/>
          <path class="cls-61" d="M494.5,252c.3,0,.4.1.2.5l-12.5,18.3-1.2,7.3c0,.2-.2.3-.4.3h-1.3c-.2,0-.3-.1-.3-.4l1.2-7.3-6.7-18.3c-.1-.3,0-.5.3-.5h1.4c.3,0,.4,0,.5.4l5.8,16.1,10.9-16.1c.1-.2.3-.3.6-.3h1.5Z"/>
        </g>
        <path class="cls-6" d="M487.1,223.3c3.6,8.2,5.3,17.2-17.8,17.2s-12.4-2.2-17-4.5c-1.2-.6,3.9-4.5,3.9-4.5,0,0,8.3,6.9,13.7,7.1,12.5.6,17.2-15.4,4.8-20.8-5.9-2.5-16.9-5.3-14.6-8.1,3.2-3.9,11.8-5.1,7.9-3.1-10,5.2,15.5,8.4,19.1,16.5Z"/>
        <path d="M511.7,228.3c0,4.8-4.1,8.3-8.3,11.9-.4.3-.7.6-1.1.9-8.7,6.9-16.8,6.8-33.4,6.8s-17.6-2.3-24.9-6.5c-1-.6,4.1-13.4,9.5-8.4,8.9,8.3,18.4,12.5,24.3,8.9,21.6-13,.6-32.6-16.6-30.9-.2,0-.4,0-.5,0-8.9-.6-10,4.2-12.3,8.3-1.2,2.2-2.8,4.2-6,5.1-.4.1-.9.2-1.3.3-5.6.9-1.3-19.9-3-25.5-1.1-3.7-19,.6-19-3.6,0-6.1,2-11.7,5.4-16.5h0c.7-1,1.4-1.9,2.1-2.8,1.2-1.4,2.6-2.8,4.1-4,11-9.5,27.9-14.2,42.4-11.7,18.9,3.3,30.2,14.3,36.2,28.2,3,6.8,4.7,14.3,5.4,22,.3,3.3-3.1,14.3-3.1,17.4Z"/>
        <path class="cls-6" d="M466,212.3c-4.8-1.1-9-5.4-9.6-9.6-.4-3,1.2-4.8,4.1-7.1,2.9-2.3,15.9-8.5,15.9-8.5,0,0-3.6-3.6-8.6-3.9-8.8-.5-15.2,6.4-15.8,15.2-.6,10,7.1,15.4,17.8,17.1"/>
        <path d="M483.8,212.9c12.4,1.9,19.1,5.9,19,9.5-.2,7.2,1.2,10.7-.5,18.7-8.7,6.9-16.8,6.8-33.4,6.8s-17.6-2.3-24.9-6.5c-1-.6,4.1-13.4,9.5-8.4,7.7,7.1,19,12,27.3,4.8,5.1-4.4,5.2-13.4,2.4-17.2-4.8-6.4-17.5-9.1-22-9.5"/>
        <path class="cls-12" d="M505.9,201.6l-11.1-3.6c-.9-.3-1.6-.9-2.1-1.9l-.4-.8c-.5-.9,0-2.1.9-2.1h11.2c2.1,0,3.8,2.2,3.8,4.9v1.1c0,1.5-1.1,2.7-2.3,2.3Z"/>
        <circle class="cls-12" cx="467.5" cy="198.9" r="13.4"/>
      </g>
      <path d="M509.4,188.9c-30.4-20.3-77.2-16.9-77.2-16.9-.5,0-.9.1-1.4.4,11-9.5,27.9-14.2,42.4-11.7,18.9,3.3,30.2,14.3,36.3,28.2Z"/>
      <path class="cls-6" d="M164.9,237.7c4.1,9.5,6.1,20-20.4,20s-14.1-2.5-19.4-5.2c-1.4-.7,4.4-5.2,4.4-5.2,0,0,9.5,8,15.6,8.3,14.2.7,19.7-17.9,5.4-24.1-6.8-2.9-19.3-6.1-16.6-9.4,3.7-4.5,13.5-5.9,9.1-3.6-11.4,6,17.7,9.8,21.8,19.2Z"/>
      <path d="M193.1,243.6c0,5.5-4.8,9.7-9.5,13.8-.4.4-.8.7-1.2,1-9.9,8-19.2,8-38.1,8s-20.1-2.7-28.5-7.5c-1.2-.7,4.7-15.6,10.9-9.7,10.2,9.7,21,14.5,27.8,10.3,24.7-15.1.7-37.9-19-35.9-.2,0-.4,0-.6,0-10.2-.6-11.4,4.9-14,9.7-1.4,2.6-3.2,4.9-6.9,5.9-.5.1-1,.2-1.5.3-6.4,1-1.4-23.2-3.4-29.7-1.3-4.3-21.7.7-21.7-4.1,0-7.1,2.3-13.6,6.2-19.2h0c.8-1.1,1.6-2.2,2.5-3.2,1.4-1.7,3-3.2,4.7-4.7,12.6-11,31.9-16.6,48.4-13.6,21.6,3.8,34.5,16.6,41.4,32.8,3.4,7.9,5.4,16.6,6.2,25.6.4,3.9-3.5,16.7-3.5,20.3Z"/>
      <path class="cls-6" d="M140.9,224.9c-5.4-1.2-10.3-6.3-11-11.2-.5-3.5,1.4-5.5,4.8-8.3,3.3-2.7,18.1-9.9,18.1-9.9,0,0-4.1-4.1-9.8-4.5-10.1-.6-17.4,7.4-18,17.7-.7,11.6,8.2,17.9,20.4,19.9"/>
      <path d="M161.2,225.6c14.1,2.3,21.8,6.8,21.7,11-.2,8.4,1.4,12.4-.5,21.7-9.9,8-19.2,8-38.1,8s-20.1-2.7-28.5-7.5c-1.2-.7,4.7-15.5,10.9-9.7,8.8,8.3,21.7,13.9,31.2,5.5,5.9-5.2,6-15.5,2.7-20-5.4-7.5-20-10.6-25.1-11"/>
      <path class="cls-12" d="M186.4,212.6l-12.6-4.1c-1-.3-1.8-1.1-2.4-2.2l-.5-.9c-.5-1.1,0-2.5,1-2.5h12.8c2.4,0,4.4,2.6,4.4,5.7v1.3c0,1.8-1.3,3.1-2.6,2.7Z"/>
      <ellipse class="cls-12" cx="142.6" cy="209.4" rx="15.3" ry="15.5"/>
      <path d="M190.4,197.7c-34.8-23.6-88.3-19.7-88.3-19.7-.5,0-1.1.2-1.6.5,12.6-11,31.9-16.6,48.4-13.6,21.6,3.8,34.5,16.6,41.4,32.8Z"/>
      <g id="Lager_6" class="cls-76">
        <g>
          <rect class="cls-42" x="61.3" y="98.1" width="346.7" height="74.9"/>
          <text class="cls-78" transform="translate(61.3 171.2)"><tspan x="0" y="0">CLOVIS</tspan></text>
          <rect class="cls-42" x="347.4" y="181.7" width="227.6" height="60.7"/>
          <text class="cls-62" transform="translate(347.3 229)"><tspan x="0" y="0">BRAY </tspan></text>
          <g>
            <path class="cls-10" d="M495.8,130.1c6.5,14.6,9.6,30.8-31.9,30.8s-22.2-3.9-30.4-8c-2.1-1.1,6.9-8,6.9-8,0,0,14.9,12.3,24.5,12.8,22.3,1.1,30.8-27.6,8.5-37.2-10.6-4.5-30.2-9.5-26.1-14.5,5.7-6.9,21.2-9.2,14.2-5.6-17.9,9.3,27.7,15.1,34.2,29.6Z"/>
            <path d="M539.9,139.2c0,8.5-7.4,14.9-14.9,21.3-.6.5-1.3,1.1-1.9,1.6-15.5,12.4-30.1,12.2-59.8,12.2s-31.5-4.2-44.7-11.6c-1.9-1,7.4-24,17-15,16,14.9,33,22.3,43.6,15.9,38.8-23.3,1.1-58.5-29.8-55.3-.3,0-.7,0-1,0-16-1-17.9,7.6-22,14.9-2.2,3.9-5,7.5-10.8,9.1-.7.2-1.5.4-2.4.5-10.1,1.6-2.3-35.7-5.3-45.7-2-6.6-34,1-34-6.4,0-10.9,3.6-20.9,9.7-29.5h0c1.2-1.7,2.5-3.4,3.9-5,2.2-2.6,4.7-5,7.3-7.2,19.7-17,50-25.5,75.9-21,33.9,5.9,54.1,25.6,65,50.6,5.3,12.2,8.4,25.7,9.7,39.4.6,6-5.5,25.6-5.5,31.2Z"/>
            <path class="cls-10" d="M458,110.5c-8.5-1.9-16.2-9.8-17.2-17.2-.8-5.4,2.1-8.5,7.4-12.8,5.1-4.1,28.4-15.2,28.4-15.2,0,0-6.4-6.4-15.4-6.9-15.8-.9-27.3,11.4-28.2,27.2-1,17.9,12.8,27.5,31.9,30.7"/>
            <path d="M489.9,111.6c22.2,3.5,34.2,10.5,34,17-.3,12.9,2.1,19.1-.8,33.5-15.5,12.4-30.1,12.2-59.8,12.2s-31.5-4.2-44.7-11.6c-1.9-1,7.4-23.9,17-15,13.8,12.8,34,21.5,48.9,8.5,9.2-8,9.4-23.9,4.2-30.8-8.5-11.5-31.4-16.3-39.3-17"/>
            <path class="cls-12" d="M529.4,91.4l-19.8-6.4c-1.5-.5-2.9-1.7-3.7-3.4l-.7-1.4c-.8-1.6,0-3.8,1.6-3.8h20c3.8,0,6.8,3.9,6.8,8.8v2.1c0,2.7-2,4.8-4.1,4.1Z"/>
            <circle class="cls-12" cx="460.7" cy="86.6" r="23.9"/>
            <path d="M535.7,68.5c-54.5-36.3-138.3-30.3-138.3-30.3-.8,0-1.7.3-2.5.8,19.7-17,50-25.5,75.9-21,33.9,5.9,54.1,25.6,64.9,50.5Z"/>
          </g>
        </g>
      </g>
      <g id="Lager_4" class="cls-76">
        <g>
          <path class="cls-55" d="M518,382c0,8-7,14-14,20-.6.5-1.2,1-1.8,1.5-14.6,11.6-28.3,11.5-56.2,11.5s-29.7-3.9-42-10.9c-1.7-1,4.6-18.9,16-14.1,19,8,25,12,35,6,36.5-21.9-10-42-22-43-.3,0-.6,0-.9,0-15-.9-16.9,7.1-20.7,14-2.1,3.7-4.7,7.1-10.2,8.6-.7.2-1.5.4-2.2.5-9.5,1.5-2.1-33.6-5-43-1.9-6.2-32,1-32-6,0-10.3,3.4-19.7,9.1-27.8h0c1.1-1.6,2.3-3.2,3.6-4.7,2.1-2.4,4.4-4.7,6.9-6.8,18.5-16,47-24,71.4-19.7,31.9,5.6,50.9,24,61.1,47.5,5,11.5,7.9,24.1,9.1,37.1.5,5.6-5.2,24.1-5.2,29.4Z"/>
          <path class="cls-74" d="M471,356c20.8,3.3,32.2,9.9,32,16-.3,12.2,2,18-.8,31.5-14.6,11.6-28.3,11.5-56.2,11.5s-29.7-3.9-42-10.9c-1.7-1,4.6-18.9,16-14.1,19,8,27.9,15.1,41,2s10-15,5-21c-8.6-10.4-25.5-17.4-33-18"/>
          <path class="cls-96" d="M508.1,337l-18.6-6c-1.4-.5-2.7-1.6-3.5-3.2l-.7-1.3c-.8-1.5,0-3.6,1.5-3.6h18.8c3.5,0,6.4,3.7,6.4,8.2v1.9c0,2.6-1.9,4.5-3.9,3.8Z"/>
          <g>
            <path d="M126.6,385.7h2v5.3c-1.6,1.3-3.4,2.6-5.6,3.9-2.2,1.4-4.5,2.5-7.1,3.4-2.6.9-5.3,1.4-8.2,1.4-5.7,0-10.7-1.2-14.9-3.5s-7.6-5.7-9.9-10.2c-2.3-4.5-3.5-9.8-3.5-16.1s1.2-11.4,3.7-15.9c2.5-4.5,5.8-8,10.1-10.5s9.2-3.7,14.6-3.7,4.2.2,6.6.5,4.7.7,7,1.2c2.3.5,4.2.9,5.7,1.3v14.6h-4.7l-1.6-8.2c0-.4-.3-.8-.7-1.1s-.8-.5-1.3-.8c-1.7-.9-3.5-1.5-5.4-2-1.9-.5-4.1-.7-6.4-.7-5.5,0-9.9,1.9-13.4,5.8s-5.2,9.7-5.2,17.6,1.8,14.6,5.5,18.9,9,6.4,16,6.4,4.4-.4,6.2-1.1,3.6-1.7,5.2-2.8c1.6-1.2,3.3-2.5,5-3.8Z"/>
            <path d="M136.7,398.5v-3l6.2-2c.4-.1.8-.4,1.1-.7s.5-.8.5-1.3v-43.5c0-.6-.1-1-.4-1.3s-.6-.5-1.1-.6l-6.2-2v-2.9h23.8v2.9l-6.2,2c-.4.1-.8.4-1.1.7-.3.3-.5.7-.5,1.3v45.6h20.6c.4,0,.8-.1,1.2-.5s.5-.7.6-1.2l1.8-11.8h4.8v18.3h-45.1Z"/>
            <path d="M216.4,399.8c-5.9,0-10.9-1.2-15.1-3.7-4.1-2.5-7.2-5.9-9.4-10.4-2.1-4.5-3.2-9.8-3.2-16s1.1-11,3.3-15.5,5.4-8,9.5-10.6,9.1-3.9,14.9-3.9,11.5,1.3,15.6,3.9,7.1,6.2,9.1,10.7,3,9.6,3,15.3-.5,7.5-1.6,11.1-2.7,6.8-4.9,9.7-5.1,5.1-8.6,6.8c-3.5,1.7-7.7,2.5-12.6,2.5ZM217.2,395.1c3.9,0,7.2-1,9.8-3s4.6-4.9,5.9-8.5,2-7.8,2-12.5-.7-10.1-2.1-14.1c-1.4-4-3.5-7-6.4-9.2s-6.4-3.2-10.8-3.2-7.5,1.1-10.1,3.2-4.5,5-5.7,8.6-1.8,7.6-1.8,11.9.7,10,2.1,14.1,3.5,7.1,6.3,9.4,6.4,3.4,10.8,3.4Z"/>
            <path d="M274.9,399.3l-20.3-51.4c-.2-.4-.4-.8-.7-1.2-.3-.4-.7-.7-1.2-.9l-4.2-1.8v-2.9h21.2v2.9l-6.7,2.4,14.4,36.7,1.5,5.3h.6l15.8-41.8-6.7-2.6v-2.9h17.9v2.9l-4.1,1.9c-.4.2-.8.5-1.2.8-.4.4-.6.8-.8,1.2l-16.4,41.8-4.5,9.5h-4.6Z"/>
            <path d="M311,398.5v-3l6.5-2c.5-.2.9-.4,1.1-.7.3-.3.4-.7.4-1.3v-43.5c0-.6-.1-1-.4-1.3s-.6-.5-1.1-.6l-6.5-2v-2.9h24.4v2.9l-6.4,2c-.4.1-.8.4-1.1.7s-.5.7-.5,1.3v43.5c0,.6.1,1,.5,1.3s.7.5,1.1.7l6.4,2v3h-24.4Z"/>
            <path d="M345.2,396.2l-.2-15.3h4.7l1.7,8.3c0,.4.3.8.7,1.1s.8.7,1.1.9c1,.6,2.1,1.2,3.3,1.8s2.5,1.1,3.8,1.4,2.7.5,4.1.5c4.2,0,7.4-.9,9.8-2.7s3.6-4.3,3.6-7.4-.7-4.3-2.1-5.9c-1.4-1.5-3.3-2.8-5.7-3.8-2.3-1-4.5-1.8-6.8-2.5s-4.4-1.5-6.5-2.3c-3.2-1.3-5.8-3.2-7.6-5.6-1.8-2.4-2.8-5.4-2.8-8.8s.9-5.9,2.6-8.3,4-4.3,7-5.7c2.9-1.4,6.2-2.1,9.8-2.1s4.3.1,6.3.4,3.9.6,5.7,1,3.5.8,5.1,1.2v14.7h-4.7l-1.6-7.8c0-.4-.3-.7-.7-1.1-.4-.4-.8-.6-1.1-.9-.6-.5-1.4-.9-2.3-1.3s-1.9-.7-3-.9-2.3-.4-3.5-.4c-3.8,0-6.7.8-8.8,2.4s-3.1,3.6-3.1,5.9.6,4,1.7,5.8c1.1,1.8,3.3,3.3,6.5,4.5,2.1.8,4.2,1.5,6.3,2.2s4.3,1.5,6.7,2.6c1.8.8,3.5,1.7,5.1,2.9s3,2.7,4,4.6c1,1.9,1.6,4.2,1.6,7s-.8,5.7-2.3,8.3c-1.5,2.6-3.9,4.8-7.2,6.4-3.3,1.6-7.6,2.5-12.9,2.5s-3.8-.2-5.8-.6-4.1-.8-6.3-1.4-4.2-1.1-6.3-1.7Z"/>
          </g>
          <circle class="cls-71" cx="443" cy="342" r="27"/>
          <path class="cls-91" d="M514.1,315.5c-51.3-34.2-130.1-28.5-130.1-28.5-.8,0-1.6.3-2.4.7,18.5-16,47-24,71.4-19.7,31.9,5.6,50.9,24,61.1,47.5Z"/>
          <g>
            <path class="cls-61" d="M338.9,459.3v-2l4.1-1.3c.3,0,.5-.2.7-.4.2-.2.3-.5.3-.9v-29c0-.4-.1-.7-.3-.9s-.4-.3-.7-.4l-4.1-1.4v-2h15.4c3.8,0,6.6.4,8.6,1.2s3.4,1.9,4.1,3.1c.8,1.3,1.1,2.7,1.1,4.1,0,2.4-.7,4.4-2.2,6s-3.4,2.7-5.9,3.3v.2c2,.1,3.9.5,5.5,1.3s2.9,1.8,3.8,3.2c.9,1.3,1.4,2.9,1.4,4.7s-.4,4-1.3,5.5c-.9,1.4-2,2.6-3.5,3.4-1.5.8-3.2,1.4-5,1.7-1.9.3-3.8.5-5.8.5h-16.2ZM349.6,424.2v13.9h2.8c3.7,0,6.3-.6,7.8-1.7s2.1-2.7,2.1-4.7-.7-4.5-2.1-5.7c-1.4-1.2-3.6-1.8-6.7-1.8h-3.9ZM349.6,441.2v14.9h6.1c3,0,5.2-.5,6.6-1.6,1.5-1.1,2.2-2.9,2.2-5.4s-.8-5-2.3-6.1-4.1-1.8-7.8-1.8h-4.8Z"/>
            <path class="cls-61" d="M376.8,459.3v-2l4.1-1.3c.3,0,.5-.2.7-.4.2-.2.3-.5.3-.9v-29c0-.4-.1-.7-.3-.9s-.4-.3-.7-.4l-4.1-1.4v-2h15.6c2.9,0,5.3.3,7.1.9,1.8.6,3.3,1.3,4.3,2.3,1,.9,1.7,2,2.1,3.1.4,1.1.6,2.3.6,3.4,0,2.1-.5,3.9-1.4,5.4-.9,1.5-2.1,2.7-3.4,3.5s-2.7,1.5-4.1,1.8l-4.3,1.8-6.1-1.2.2-2.9c.2,0,.5.1,1.1.2.6,0,1.2.1,1.9.1s1.2,0,1.6,0c1.9,0,3.5-.4,4.8-1,1.2-.7,2.2-1.6,2.8-2.8s.9-2.4.9-3.7c0-2.7-.8-4.6-2.3-5.8-1.5-1.2-3.8-1.8-6.7-1.8h-4v30.4c0,.4.1.7.3.9.2.2.4.4.7.4l4.2,1.3v2h-15.9ZM414,459.3h-6.5c-1.2,0-2.1-.1-2.7-.3-.6-.2-1.1-.6-1.5-1-.4-.5-.9-1.2-1.6-2.1l-9.6-13.2,5.4-1.7,10,13.3c.2.3.5.6,1,1s.9.6,1.2.8l4.1,1.2v2h0Z"/>
            <path class="cls-61" d="M413.5,459.3v-2l2.7-1.2c.7-.3,1.1-.8,1.4-1.5l10.9-27.8,3.1-6.4h3l13.5,34.2c.1.3.3.6.5.9.2.3.5.5.8.6l2.8,1.1v2h-14.1v-2l4.5-1.5-9.5-24.5-1-3.6h-.5l-10.5,27.9,4.5,1.7v2h-12ZM424.2,445.9l1.3-3.7h12.3l1.3,3.7h-14.9Z"/>
            <path class="cls-61" d="M462.5,459.3v-2l4.4-1.3c.3,0,.6-.2.8-.4s.3-.5.3-.9v-9.7l-10.9-19.4c-.1-.3-.3-.5-.5-.8s-.5-.5-.8-.6l-3-1.2v-2h14.1v2l-4.4,1.6,7.7,13.2,1.5,3.3h.4l9.1-16.4-4.4-1.7v-2h12v2l-2.9,1.2c-.3.1-.5.3-.8.6-.2.3-.4.5-.6.8l-11,19.1v9.9c0,.4,0,.7.3.9.2.2.4.4.7.4l4.4,1.3v2h-16.5Z"/>
          </g>
          <ellipse class="cls-81" cx="506" cy="329.5" rx="3" ry="6.5"/>
        </g>
        <g>
          <g>
            <path d="M159.8,145.6h2.5v6.1c-1.6,1.3-3.5,2.6-5.8,4-2.2,1.4-4.7,2.5-7.4,3.5-2.7.9-5.5,1.4-8.5,1.4-5.9,0-11.1-1.2-15.5-3.6-4.4-2.4-7.9-5.9-10.4-10.5s-3.7-10.2-3.7-16.8,1.3-11.8,3.8-16.5,6.1-8.2,10.6-10.8,9.6-3.8,15.3-3.8,4.4.2,6.9.5,5,.8,7.4,1.2,4.4.9,6,1.3v15.6h-5.6l-1.2-8.8c0-.4-.3-.8-.7-1.1s-.8-.5-1.1-.7c-1.9-.9-3.7-1.6-5.6-2s-4-.6-6.3-.6c-5.8,0-10.5,1.9-14.2,5.9-3.6,3.9-5.5,9.9-5.5,17.9s1.9,15,5.7,19.3c3.8,4.4,9.3,6.6,16.5,6.6s5-.5,7.1-1.5,4-2.1,5.6-3.4c1.6-1.3,2.9-2.4,4-3.2Z"/>
            <path d="M172.2,159.3v-3.4l6.6-2.3c.4-.1.7-.4,1-.6.3-.3.4-.7.4-1.3v-44.2c0-.5-.1-.9-.4-1.2-.3-.3-.6-.5-1-.6l-6.6-2.4v-3.3h25.1v3.3l-6.6,2.4c-.4.1-.8.3-1.1.6-.3.3-.5.7-.5,1.2v46.3h21.2c.4,0,.8-.1,1.2-.4.4-.2.6-.7.6-1.2l1.4-12.4h5.8v19.6h-47.2Z"/>
            <path d="M256.9,160.6c-6.2,0-11.5-1.2-15.8-3.7s-7.6-6.1-9.8-10.7c-2.2-4.6-3.4-10.2-3.4-16.7s1.2-11.4,3.5-16.1c2.3-4.7,5.6-8.3,10-10.9s9.6-3.9,15.6-3.9,12,1.3,16.3,4c4.3,2.7,7.4,6.4,9.5,11s3.1,9.9,3.1,15.9-.6,7.9-1.7,11.6-2.9,7.1-5.2,10-5.3,5.3-9,7c-3.7,1.7-8.1,2.6-13.2,2.6ZM257.6,155.3c4.1,0,7.5-1,10.2-3.1s4.8-4.9,6.2-8.5,2.1-7.9,2.1-12.8-.7-10.4-2.2-14.4c-1.5-4-3.6-7.2-6.6-9.3s-6.7-3.3-11.2-3.3-7.8,1.1-10.5,3.2c-2.7,2.2-4.7,5.1-5.9,8.7s-1.9,7.7-1.9,12.2.7,10.3,2.2,14.4,3.6,7.2,6.6,9.5c2.9,2.2,6.7,3.4,11.2,3.4Z"/>
            <path d="M318.8,160.1l-21-52.8c-.2-.4-.4-.8-.7-1.1s-.7-.7-1.1-.9l-4.6-2v-3.3h22.2v3.3l-6.8,2.7,14.8,37.4,1.4,5.4h.9l16.2-42.5-6.8-3v-3.3h19v3.3l-4.4,2.2c-.4.2-.8.5-1.2.9s-.6.8-.8,1.2l-16.8,42.8-4.6,9.8h-5.7Z"/>
            <path d="M358.4,159.3v-3.4l7-2.3c.5-.2.8-.4,1.1-.7s.4-.7.4-1.3v-44.2c0-.5-.1-.9-.4-1.2s-.6-.5-1-.6l-7-2.4v-3.3h25.9v3.3l-7,2.4c-.4.1-.8.3-1.1.6-.3.3-.4.7-.4,1.2v44.2c0,.6.1,1,.4,1.3.3.3.6.5,1,.6l7,2.3v3.4h-25.9Z"/>
          </g>
          <g>
            <path class="cls-61" d="M341.9,220.3v-2l4.1-1.3c.3,0,.5-.2.7-.4.2-.2.3-.5.3-.9v-29c0-.4-.1-.7-.3-.9-.2-.2-.4-.3-.7-.4l-4.1-1.4v-1.9h15.4c3.8,0,6.6.4,8.6,1.2,2,.8,3.4,1.9,4.1,3.1.8,1.3,1.1,2.7,1.1,4.1,0,2.4-.7,4.4-2.2,6s-3.4,2.7-5.9,3.3v.2c2,.1,3.9.6,5.5,1.3s2.9,1.8,3.8,3.2c.9,1.3,1.4,2.9,1.4,4.7s-.4,4-1.3,5.4-2,2.6-3.5,3.4c-1.5.8-3.2,1.4-5,1.7-1.9.3-3.8.5-5.8.5h-16.2ZM352.6,185.2v13.9h2.8c3.7,0,6.3-.6,7.8-1.7s2.1-2.7,2.1-4.7-.7-4.5-2.1-5.7c-1.4-1.2-3.6-1.8-6.7-1.8h-3.9ZM352.6,202.2v14.9h6.1c3,0,5.2-.6,6.6-1.6,1.5-1.1,2.2-2.9,2.2-5.4s-.8-5-2.3-6.1-4.1-1.8-7.8-1.8h-4.8Z"/>
            <path class="cls-61" d="M379.8,220.3v-2l4.1-1.3c.3,0,.5-.2.7-.4.2-.2.3-.5.3-.9v-29c0-.4-.1-.7-.3-.9-.2-.2-.4-.3-.7-.4l-4.1-1.4v-1.9h15.6c2.9,0,5.3.3,7.1.9s3.3,1.3,4.3,2.3c1,.9,1.7,2,2.1,3.1.4,1.1.6,2.3.6,3.4,0,2.1-.5,3.9-1.4,5.4-.9,1.5-2.1,2.7-3.4,3.5s-2.7,1.5-4.1,1.8l-4.3,1.8-6.1-1.2.2-2.9c.2,0,.5.1,1.1.2.6,0,1.2.1,1.9.1s1.2,0,1.6,0c1.9,0,3.5-.4,4.8-1.1,1.2-.7,2.2-1.6,2.8-2.8.6-1.2.9-2.4.9-3.7,0-2.7-.8-4.6-2.3-5.8-1.5-1.2-3.8-1.8-6.7-1.8h-4v30.4c0,.4.1.7.3.9.2.2.4.4.7.4l4.2,1.3v2h-15.9ZM417,220.3h-6.5c-1.2,0-2.1-.1-2.7-.3-.6-.2-1.1-.6-1.5-1.1-.4-.5-.9-1.2-1.6-2.1l-9.6-13.2,5.4-1.7,10,13.3c.2.3.5.6,1,1s.9.6,1.2.8l4.1,1.2v2h0Z"/>
            <path class="cls-61" d="M416.5,220.3v-2l2.7-1.2c.7-.3,1.1-.8,1.4-1.5l10.9-27.8,3.1-6.4h3l13.5,34.2c.1.3.3.6.5.9.2.3.5.5.8.6l2.8,1.1v2h-14.1v-2l4.5-1.6-9.5-24.4-1-3.6h-.5l-10.5,27.9,4.5,1.7v2h-12ZM427.2,206.9l1.3-3.7h12.3l1.3,3.7h-14.9Z"/>
            <path class="cls-61" d="M465.5,220.3v-2l4.4-1.3c.3,0,.6-.2.8-.4s.3-.5.3-.9v-9.7l-10.9-19.4c-.1-.3-.3-.5-.5-.8s-.5-.5-.8-.6l-3-1.2v-1.9h14.1v1.9l-4.4,1.6,7.7,13.2,1.5,3.3h.4l9.1-16.4-4.4-1.7v-1.9h12v1.9l-2.9,1.2c-.3.1-.5.3-.8.6-.2.3-.4.5-.6.8l-11,19.1v9.9c0,.4,0,.7.3.9.2.2.4.4.7.4l4.4,1.3v2h-16.5Z"/>
          </g>
          <path class="cls-31" d="M425.9,137.5l1.3.7c.2.1-3.6,11-3.6,11l-4.5-1.7,6.7-10Z"/>
          <path class="cls-55" d="M520,139c0,8-7,14-14,20-.6.5-1.2,1-1.8,1.5-14.6,11.6-28.3,11.5-56.2,11.5s-29.7-3.9-42-10.9c-1.7-1,4.6-18.9,16-14.1,19,8,28,14,38,8,36.5-21.9-13-44-25-45-.3,0-.6,0-.9,0-15-.9-16.9,7.1-20.7,14-2.1,3.7-4.7,7.1-10.2,8.6-.7.2-1.5.4-2.2.5-9.5,1.5-2.1-33.6-5-43-1.9-6.2-32,1-32-6,0-10.3,3.4-19.7,9.1-27.8h0c1.1-1.6,2.3-3.2,3.6-4.7,2.1-2.4,4.4-4.7,6.9-6.8,18.5-16,47-24,71.4-19.7,31.9,5.6,50.9,24,61.1,47.5,5,11.5,7.9,24.1,9.1,37.1.5,5.6-5.2,24.1-5.2,29.4Z"/>
          <path class="cls-31" d="M478.5,130.5c6.1,13.8,9,29-30,29s-20.9-3.7-28.6-7.5c-2-1,6.5-7.5,6.5-7.5,0,0,14,11.6,23,12,21,1,29-26,8-35-9.9-4.3-28.5-8.9-24.5-13.6,5.4-6.5,19.9-8.6,13.4-5.2-16.9,8.7,26.1,14.2,32.2,27.9Z"/>
          <path class="cls-74" d="M473,113c20.8,3.3,32.2,9.9,32,16-.3,12.2,2,18-.8,31.5-14.6,11.6-28.3,11.5-56.2,11.5s-29.7-3.9-42-10.9c-1.7-1,6.9-22.5,16-14.1,13,12,32,20.2,46,8,8.6-7.5,8.8-22.5,4-29-8-10.8-29.5-15.4-37-16"/>
          <path class="cls-96" d="M510.1,94.1l-18.6-6c-1.4-.5-2.7-1.6-3.5-3.2l-.7-1.3c-.8-1.5,0-3.6,1.5-3.6h18.8c3.5,0,6.4,3.7,6.4,8.2v1.9c0,2.6-1.9,4.5-3.9,3.8Z"/>
          <path class="cls-31" d="M466,63.8l-1.3-.8c-.2-.1-7.6,8.7-7.6,8.7l3.8,2.9,5.1-10.9Z"/>
          <path class="cls-31" d="M443,112c-8-1.8-15.2-9.2-16.2-16.2-.7-5.1,2-8,7-12,4.8-3.8,27.7-15.3,27.7-15.3,0,0-8.5-5.5-15.5-5.5-14.9,0-25.7,10.7-26.5,25.6-1,16.9,12,25.9,30,28.9"/>
          <circle class="cls-94" cx="445.5" cy="89.5" r="22.5"/>
          <path class="cls-91" d="M516.1,72.5c-51.3-34.2-130.1-28.5-130.1-28.5-.8,0-1.6.3-2.4.7,18.5-16,47-24,71.4-19.7,31.9,5.6,50.9,24,61.1,47.5Z"/>
          <ellipse class="cls-81" cx="508" cy="86.5" rx="3" ry="6.5"/>
        </g>
      </g>
    </g>
    <g id="Lager_2-2" data-name="Lager_2" class="cls-76">
      <g>
        <path class="cls-7" d="M418.5,416.1c21.4,49,31.5,103.1-104.9,103.1s-72.9-13-99.9-26.7c-7-3.6,22.8-26.7,22.8-26.7,0,0,49,41.2,80.6,42.8,73.5,3.6,101.5-92.4,28-124.4-34.8-15.2-99.5-31.7-85.8-48.4,18.9-23,69.7-30.7,46.7-18.6-59.1,31,91.2,50.4,112.5,98.9Z"/>
        <path class="cls-55" d="M563.6,446.4c0,28.5-24.5,49.8-49,71.1-2.1,1.8-4.2,3.6-6.2,5.3-51.1,41.4-99,41-196.6,41s-103.8-13.9-147-38.8c-6.1-3.5,24.4-80.2,56.1-50.2,52.5,49.8,108.4,74.6,143.4,53.4,127.5-77.8,3.5-195.6-98-184.9-1.1.1-2.2-.2-3.2-.2-52.5-3.3-59,25.3-72.3,49.8-7.2,13.1-16.3,25.2-35.5,30.5-2.4.7-5.1,1.2-7.9,1.7-33.3,5.3-7.5-119.5-17.5-152.9-6.6-22.2-111.9,3.5-111.9-21.3,0-36.6,11.8-70,31.8-98.8h.1c3.9-5.8,8.1-11.3,12.7-16.7,7.3-8.6,15.3-16.7,24-24.2C151.3,54.2,251,25.7,336.3,40.9c111.4,19.8,178,85.5,213.6,169,17.5,40.8,27.6,85.8,31.9,131.8,1.9,20.1-18.2,85.8-18.2,104.5Z"/>
        <path class="cls-7" d="M294.3,350.3c-28-6.3-53.2-32.6-56.7-57.5-2.5-17.9,7-28.5,24.5-42.7,16.9-13.7,93.5-50.9,93.5-50.9,0,0-21-21.3-50.7-23.1-52.1-3.1-89.8,38.1-92.8,91.1-3.4,60,42.1,92,105.1,102.7"/>
        <path class="cls-74" d="M399.2,353.9c72.8,11.7,112.5,35.2,111.9,56.9-1.2,43.3,7,64-2.8,111.9-51.1,41.4-99,41-196.6,41s-103.8-13.9-147-38.8c-6.1-3.5,24.2-80.1,56.1-50.2,45.5,42.7,111.8,71.9,160.9,28.5,30.2-26.7,30.9-80,14-103.1-28.1-38.5-103.2-54.6-129.4-56.9"/>
        <path class="cls-96" d="M529.2,286.5l-65.2-21.3c-5.1-1.6-9.4-5.7-12.3-11.3l-2.4-4.6c-2.8-5.4.2-12.7,5.2-12.7h65.8c12.4,0,22.4,13.1,22.4,29.3v6.9c-.1,9.2-6.7,16-13.6,13.7Z"/>
        <ellipse class="cls-94" cx="303.1" cy="270.3" rx="78.7" ry="80"/>
        <path class="cls-91" d="M549.9,210C370.5,88.5,94.9,108.5,94.9,108.5c-2.7,0-5.6.9-8.4,2.6C151.2,54.2,250.9,25.7,336.2,40.9c111.5,19.8,178,85.5,213.7,169Z"/>
      </g>
    </g>
    <g id="Lager_3-2" data-name="Lager_3">
      <g>
        <g>
          <path d="M104.9,257.8c1.4.3,2.1,1,1.9,2.6l-1.2,7.9c-.3,1.4-.9,2-2.1,2h-24.5c-19.5,0-24.1,7.7-28.2,34.3-4.3,26.6-2.1,34.4,17.3,34.4h24.3c1.2,0,1.8.6,1.6,1.9l-1.2,7.9c-.3,1.6-1.2,2.5-2.9,2.8-6.2,1-14.6,1.5-24.1,1.5-31.1,0-37.2-11.1-31.3-48.4,5.9-37.5,15.5-48.3,46.7-48.3,9.5,0,17.6.4,23.7,1.5Z"/>
          <path d="M135.3,256.9c1.2,0,1.8.6,1.6,1.9l-12.6,79.6h43.2c1.2,0,1.8.6,1.5,1.9l-1.6,10.2c-.1,1.2-.9,1.9-2.1,1.9h-57.4c-1.2,0-1.8-.6-1.5-1.9l14.5-91.7c.1-1.2.9-1.9,2.1-1.9h12.4Z"/>
          <path d="M258.6,304.8c-5.9,37.2-15.7,48.2-46.9,48.2s-37.3-11-31.4-48.2c5.9-37.5,15.7-48.5,46.8-48.5s37.5,11.1,31.6,48.5ZM196.3,304.8c-4.3,26.3-1.9,34.2,17.6,34.2s24.3-7.9,28.5-34.2c4.4-26.6,2-34.6-17.5-34.6-19.5,0-24.3,8-28.6,34.6Z"/>
          <path d="M350.8,256.9c1.4,0,1.9.4,1.2,2l-33.2,79.4c-5.6,13.1-7.6,14.7-21.5,14.7s-14.6-1.5-16-14.7l-8.9-79.4c-.1-1.6.4-2,1.8-2h12.7c1.1,0,1.1.4,1.4,2l8.2,75.5c.5,4.4.7,5.2,2.9,5.2s3.2-.9,5.1-5.2l31.4-75.5c.6-1.6.9-2,2-2,0,0,12.7,0,12.7,0Z"/>
          <path d="M378.9,256.9c1.2,0,1.8.6,1.6,1.9l-14.5,91.6c-.3,1.4-1,2-2.2,2h-12.2c-1.2,0-1.8-.6-1.6-2l14.6-91.6c.1-1.2.9-1.9,2.1-1.9h12.2Z"/>
        </g>
        <g>
          <path class="cls-61" d="M368.2,389.3c-1.2,7.6-4,12.5-9.3,13.7v.2c6.7,1.3,7.6,8,6.4,14.8-2.2,13.8-10.3,16.8-22.7,16.8s-17.4,0-22.1-.3c-.6,0-.7-.2-.7-.7l9.6-60.3c0-.6.3-.7.8-.7,4.8-.3,16.3-.3,19.7-.3,13.4,0,20.3,3.5,18.3,17ZM328.8,405.2l-4,25.5h18.6c9.7,0,15.7-2.2,17.3-12.7,1.6-10.2-2.7-12.8-11.2-12.8h-20.6ZM333.4,376.4l-4,24.8h17.4c10.4,0,15.1-1.2,16.7-11.7,1.8-10.7-3.7-13.2-14.6-13.2h-15.6Z"/>
          <path class="cls-61" d="M422.2,391.6c-2.2,13.8-6.5,17.6-17.3,18.7l10.9,23.1c.3.5,0,1-.7,1h-2.8c-1.1,0-1.3-.3-1.8-1.1l-10.7-22.5h-16.3l-3.7,22.9c0,.6-.3.7-.9.7h-3c-.6,0-.8-.2-.7-.8l9.6-60.2c0-.6.3-.7.8-.7,4.8-.3,11.1-.3,14.4-.3,19,0,24.9,1.8,22.2,19.3ZM388.8,376.4l-4.8,30.2h10.2c16.2,0,21.1-.7,23.4-14.9,2.2-14.1-2.4-15.3-18.6-15.3,0,0-10.2,0-10.2,0Z"/>
          <path class="cls-61" d="M463.5,381.8l6.2,51.7c0,.7,0,.8-.7.8h-3.3c-.4,0-.6-.2-.6-.7l-2.6-20h-27l-8.9,20c-.3.6-.3.7-.8.7h-3.4c-.6,0-.7-.2-.5-.8l23-51.7c3.6-8.2,4.7-9.5,10.7-9.5,6.3,0,6.9,1.2,7.9,9.5ZM449,382.9l-11.7,26.5h24.7l-3.2-26.5c-.7-5.6-.9-6.5-4.1-6.5-2.8,0-3.4.9-5.8,6.5Z"/>
          <path class="cls-61" d="M527.1,372.7c.7,0,1,.3.4,1.1l-29.2,42.7-2.7,17.1c0,.5-.4.7-.9.7h-3.1c-.5,0-.7-.3-.7-.8l2.7-17.1-15.7-42.7c-.3-.7,0-1.1.7-1.1h3.3c.7,0,.9.2,1.2.8l13.6,37.5,25.5-37.6c.3-.5.7-.7,1.3-.7h3.4Z"/>
        </g>
        <path class="cls-8" d="M509.9,305.5c8.5,19.1,12.5,40.2-41.6,40.2s-28.9-5.1-39.6-10.4c-2.8-1.4,9-10.4,9-10.4,0,0,19.4,16.1,32,16.7,29.1,1.4,40.2-36,11.1-48.5-13.8-5.9-39.4-12.4-34-18.9,7.5-9,27.6-12,18.5-7.2-23.4,12.1,36.2,19.6,44.6,38.6Z"/>
        <path class="cls-55" d="M567.4,317.3c0,11.1-9.7,19.4-19.4,27.7-.8.7-1.7,1.4-2.5,2.1-20.3,16.1-39.3,16-77.9,16s-41.1-5.4-58.3-15.1c-2.4-1.4,9.6-31.3,22.2-19.6,20.8,19.4,43,29.1,56.8,20.8,50.6-30.3,1.4-76.3-38.8-72.1-.4,0-.9,0-1.3,0-20.8-1.3-23.4,9.8-28.7,19.4-2.9,5.1-6.5,9.8-14.1,11.9-1,.3-2,.5-3.1.7-13.2,2.1-3-46.6-6.9-59.6-2.6-8.6-44.4,1.4-44.4-8.3,0-14.3,4.7-27.3,12.6-38.5h0c1.5-2.3,3.2-4.4,5-6.5,2.9-3.3,6.1-6.5,9.5-9.4,25.7-22.1,65.2-33.3,99-27.3,44.2,7.7,70.5,33.3,84.7,65.9,6.9,15.9,10.9,33.5,12.7,51.4.8,7.8-7.2,33.5-7.2,40.8Z"/>
        <path class="cls-8" d="M460.6,279.8c-11.1-2.5-21.1-12.7-22.5-22.4-1-7,2.8-11.1,9.7-16.6,6.7-5.4,37-19.9,37-19.9,0,0-8.3-8.3-20.1-9-20.6-1.2-35.6,14.9-36.8,35.5-1.3,23.4,16.7,35.9,41.6,40"/>
        <path class="cls-74" d="M502.2,281.2c28.9,4.6,44.6,13.7,44.4,22.2-.5,16.9,2.8,25-1.1,43.6-20.3,16.1-39.3,16-77.9,16s-41.1-5.4-58.3-15.1c-2.4-1.4,9.6-31.2,22.2-19.6,18,16.6,44.3,28,63.8,11.1,12-10.4,12.2-31.2,5.5-40.2-11.1-15-40.9-21.3-51.3-22.2"/>
        <path class="cls-96" d="M553.7,254.9l-25.9-8.3c-2-.6-3.7-2.2-4.9-4.4l-.9-1.8c-1.1-2.1,0-4.9,2.1-4.9h26.1c4.9,0,8.9,5.1,8.9,11.4v2.7c0,3.6-2.7,6.3-5.4,5.4Z"/>
        <circle class="cls-94" cx="464.1" cy="248.6" r="31.2"/>
        <path class="cls-91" d="M562,225.1c-71.1-47.4-180.4-39.6-180.4-39.6-1.1,0-2.2.4-3.3,1,25.7-22.1,65.2-33.3,99-27.3,44.2,7.7,70.5,33.3,84.7,65.9Z"/>
      </g>
    </g>
  </g>
</svg>