<?xml version="1.0" encoding="UTF-8"?>
<svg xmlns="http://www.w3.org/2000/svg" version="1.1" viewBox="0 0 400 200">
  <defs>
    <style>
      .cls-1 {
        fill: gray;
        stroke: #999;
        stroke-width: 9px;
      }

      .cls-1, .cls-2 {
        stroke-linejoin: round;
      }

      .cls-3 {
        fill: #fff;
      }

      .cls-2 {
        stroke: #000;
        stroke-width: 8px;
      }

      .cls-4 {
        fill: #d8d8d8;
      }

      .cls-5 {
        fill: #444;
      }

      .cls-6 {
        fill: #333;
      }

      .cls-7 {
        fill: #9e9e9e;
      }

      .cls-8 {
        display: none;
      }

      .cls-9 {
        fill: #eaeaea;
      }

      .cls-10 {
        fill: #f7f7f7;
      }
    </style>
  </defs>
  <!-- Generator: Adobe Illustrator 28.7.1, SVG Export Plug-In . SVG Version: 1.2.0 Build 142)  -->
  <g>
    <g id="Lager_2" class="cls-8">
      <g>
        <g>
          <path d="M70.2,74.9c.9.2,1.4.7,1.2,1.7l-.8,5.1c-.2.9-.6,1.3-1.4,1.3h-16c-12.7,0-15.7,5-18.4,22.4-2.8,17.4-1.4,22.5,11.3,22.5h15.9c.8,0,1.1.4,1.1,1.2l-.8,5.1c-.2,1.1-.8,1.6-1.9,1.8-4.1.7-9.5,1-15.7,1-20.3,0-24.3-7.2-20.4-31.6,3.8-24.4,10.1-31.5,30.5-31.5,6.2,0,11.5.2,15.5,1Z"/>
          <path d="M90.1,74.3c.8,0,1.1.4,1.1,1.2l-8.2,52h28.2c.8,0,1.1.4,1,1.2l-1.1,6.7c0,.8-.6,1.2-1.4,1.2h-37.5c-.8,0-1.1-.4-1-1.2l9.5-59.9c0-.8.6-1.2,1.4-1.2h8.1Z"/>
          <path d="M170.6,105.6c-3.8,24.3-10.3,31.4-30.6,31.4s-24.4-7.2-20.5-31.4c3.8-24.4,10.3-31.7,30.5-31.7s24.4,7.2,20.6,31.7ZM129.9,105.6c-2.8,17.2-1.2,22.3,11.5,22.3s15.9-5.1,18.6-22.3c2.9-17.4,1.3-22.6-11.4-22.6-12.7,0-15.9,5.2-18.6,22.6Z"/>
          <path d="M230.8,74.3c.9,0,1.2.2.8,1.3l-21.7,51.8c-3.7,8.6-5,9.6-14,9.6s-9.5-1-10.4-9.6l-5.8-51.8c0-1.1.2-1.3,1.1-1.3h8.3c.7,0,.7.2.9,1.3l5.4,49.3c.3,2.9.5,3.4,1.9,3.4s2.1-.6,3.3-3.4l20.5-49.3c.4-1.1.6-1.3,1.3-1.3,0,0,8.3,0,8.3,0Z"/>
          <path d="M249.1,74.3c.8,0,1.1.4,1.1,1.2l-9.5,59.8c-.2.9-.7,1.3-1.5,1.3h-8c-.8,0-1.1-.4-1.1-1.3l9.5-59.8c0-.8.6-1.2,1.4-1.2h8Z"/>
        </g>
        <g>
          <path class="cls-5" d="M242.1,160.7c-.8,4.9-2.6,8.1-6.1,9h0c4.5,1,5,5.3,4.2,9.8-1.4,9-6.7,11-14.8,11s-11.3,0-14.4-.2c-.4,0-.5-.1-.4-.5l6.3-39.4c0-.4.2-.5.5-.5,3.2-.2,10.6-.2,12.9-.2,8.8,0,13.3,2.3,11.9,11.1ZM216.4,171.1l-2.6,16.7h12.1c6.4,0,10.2-1.5,11.3-8.3,1-6.7-1.8-8.4-7.3-8.4h-13.5ZM219.4,152.3l-2.6,16.2h11.3c6.8,0,9.8-.8,10.9-7.6,1.1-7-2.4-8.6-9.5-8.6h-10.2Z"/>
          <path class="cls-5" d="M277.4,162.3c-1.5,9-4.2,11.5-11.3,12.2l7.1,15.1c.2.3,0,.7-.5.7h-1.8c-.7,0-.9-.2-1.1-.7l-7-14.7h-10.6l-2.4,14.9c0,.4-.2.5-.6.5h-2c-.4,0-.5-.1-.4-.5l6.3-39.3c0-.4.2-.5.5-.5,3.2-.2,7.2-.2,9.4-.2,12.4,0,16.3,1.1,14.5,12.6ZM255.6,152.3l-3.2,19.7h6.7c10.6,0,13.7-.4,15.3-9.7,1.5-9.2-1.6-10-12.1-10,0,0-6.7,0-6.7,0Z"/>
          <path class="cls-5" d="M304.3,155.9l4.1,33.8c0,.5,0,.5-.5.5h-2.2c-.3,0-.4-.1-.4-.5l-1.7-13.1h-17.6l-5.8,13.1c-.2.4-.2.5-.5.5h-2.2c-.4,0-.5-.1-.3-.5l15-33.8c2.3-5.4,3-6.2,7-6.2,4.1,0,4.5.8,5.2,6.2ZM294.8,156.6l-7.6,17.3h16.1l-2.1-17.3c-.4-3.6-.6-4.2-2.7-4.2-1.8,0-2.2.6-3.8,4.2Z"/>
          <path class="cls-5" d="M345.8,149.9c.4,0,.7.2.3.7l-19.1,27.9-1.8,11.2c0,.3-.3.5-.6.5h-2c-.3,0-.5-.2-.4-.5l1.8-11.1-10.3-27.9c-.2-.5,0-.7.5-.7h2.2c.4,0,.6.1.8.5l8.9,24.5,16.7-24.6c.2-.3.4-.5.9-.5h2.2Z"/>
        </g>
        <path class="cls-2" d="M334.6,106.1c5.5,12.5,8.1,26.2-27.1,26.2s-18.9-3.3-25.8-6.8c-1.8-.9,5.9-6.8,5.9-6.8,0,0,12.7,10.5,20.9,10.9,19,.9,26.2-23.5,7.2-31.7-9-3.9-25.7-8.1-22.2-12.3,4.9-5.9,18-7.8,12.1-4.7-15.3,7.9,23.6,12.8,29.1,25.2Z"/>
        <path class="cls-4" d="M372.1,113.7c0,7.2-6.3,12.7-12.7,18.1-.5.5-1.1.9-1.6,1.3-13.2,10.5-25.6,10.4-50.9,10.4s-26.9-3.6-38-9.9c-1.6-.9,6.3-20.4,14.5-12.8,13.6,12.7,28.1,19,37.1,13.6,33-19.8.9-49.8-25.3-47.1-.3,0-.6,0-.8,0-13.6-.8-15.3,6.4-18.7,12.7-1.9,3.4-4.2,6.4-9.2,7.8-.6.2-1.3.3-2,.4-8.6,1.4-1.9-30.4-4.5-38.9-1.7-5.6-29,.9-29-5.4,0-9.3,3.1-17.8,8.2-25.1h0c1-1.5,2.1-2.9,3.3-4.2,1.9-2.2,4-4.2,6.2-6.2,16.8-14.5,42.5-21.7,64.6-17.8,28.8,5,46,21.8,55.3,43,4.5,10.4,7.1,21.9,8.3,33.5.5,5.1-4.7,21.9-4.7,26.6Z"/>
        <path class="cls-2" d="M302.4,89.3c-7.2-1.6-13.8-8.3-14.7-14.6-.7-4.6,1.8-7.2,6.3-10.9,4.4-3.5,24.2-13,24.2-13,0,0-5.4-5.4-13.1-5.9-13.5-.8-23.2,9.7-24,23.2-.9,15.3,10.9,23.4,27.2,26.1"/>
        <path class="cls-7" d="M329.6,90.2c18.8,3,29.1,9,29,14.5-.3,11,1.8,16.3-.7,28.5-13.2,10.5-25.6,10.4-50.9,10.4s-26.9-3.6-38-9.9c-1.6-.9,6.3-20.4,14.5-12.8,11.8,10.9,28.9,18.3,41.6,7.2,7.8-6.8,8-20.4,3.6-26.2-7.3-9.8-26.7-13.9-33.5-14.5"/>
        <path class="cls-6" d="M363.2,73.1l-16.9-5.4c-1.3-.4-2.4-1.4-3.2-2.9l-.6-1.2c-.7-1.4,0-3.2,1.3-3.2h17c3.2,0,5.8,3.3,5.8,7.5v1.8c0,2.4-1.7,4.1-3.5,3.5Z"/>
        <circle class="cls-10" cx="304.7" cy="68.9" r="20.4"/>
        <path class="cls-9" d="M368.6,53.6c-46.4-30.9-117.7-25.8-117.7-25.8-.7,0-1.4.2-2.2.7,16.8-14.5,42.5-21.7,64.6-17.8,28.8,5,46,21.8,55.3,43Z"/>
      </g>
    </g>
    <g id="Lager_3">
      <g>
        <g>
          <path d="M60.9,73c1,.2,1.5.7,1.3,1.9l-.9,5.6c-.2,1-.6,1.4-1.5,1.4h-17.3c-13.8,0-17.1,5.5-20,24.3-3,18.9-1.5,24.4,12.3,24.4h17.3c.9,0,1.2.4,1.2,1.3l-.9,5.6c-.2,1.1-.9,1.8-2,2-4.4.7-10.4,1.1-17.1,1.1-22,0-26.4-7.9-22.2-34.3,4.2-26.6,11-34.2,33.1-34.2s12.5.3,16.8,1.1Z"/>
          <path d="M82.5,72.4c.9,0,1.2.4,1.1,1.3l-8.9,56.5h30.6c.9,0,1.2.4,1.1,1.3l-1.1,7.3c0,.9-.6,1.3-1.5,1.3h-40.7c-.9,0-1.2-.4-1.1-1.3l10.3-65c0-.9.6-1.3,1.5-1.3h8.8Z"/>
          <path d="M169.9,106.4c-4.2,26.4-11.1,34.2-33.3,34.2s-26.5-7.8-22.3-34.2c4.2-26.6,11.1-34.4,33.2-34.4s26.6,7.9,22.4,34.4ZM125.8,106.4c-3,18.7-1.3,24.3,12.5,24.3s17.3-5.6,20.2-24.3c3.1-18.9,1.4-24.5-12.4-24.5s-17.3,5.7-20.3,24.5Z"/>
          <path d="M235.3,72.4c1,0,1.3.3.9,1.4l-23.5,56.3c-4,9.3-5.4,10.4-15.2,10.4s-10.4-1.1-11.3-10.4l-6.3-56.3c0-1.1.3-1.4,1.2-1.4h9c.8,0,.8.3,1,1.4l5.8,53.5c.3,3.1.5,3.7,2,3.7s2.3-.6,3.6-3.7l22.3-53.5c.4-1.1.6-1.4,1.4-1.4h9Z"/>
          <path d="M255.2,72.4c.9,0,1.2.4,1.1,1.3l-10.3,65c-.2,1-.7,1.4-1.6,1.4h-8.7c-.9,0-1.2-.4-1.1-1.4l10.4-65c0-.9.6-1.3,1.5-1.3h8.7Z"/>
        </g>
        <g>
          <path class="cls-5" d="M247.6,166.3c-.8,5.4-2.8,8.8-6.6,9.7h0c4.8,1.1,5.4,5.8,4.6,10.6-1.5,9.8-7.3,11.9-16.1,11.9s-12.3,0-15.7-.2c-.4,0-.5-.1-.5-.5l6.8-42.8c0-.4.2-.5.6-.5,3.4-.2,11.6-.2,14-.2,9.5,0,14.4,2.5,13,12ZM219.7,177.6l-2.8,18.1h13.2c6.9,0,11.1-1.6,12.3-9,1.1-7.3-1.9-9.1-8-9.1h-14.6ZM223,157.1l-2.8,17.6h12.3c7.4,0,10.7-.9,11.9-8.3,1.2-7.6-2.6-9.3-10.3-9.3h-11Z"/>
          <path class="cls-5" d="M285.9,167.9c-1.6,9.8-4.6,12.5-12.3,13.3l7.7,16.3c.2.3,0,.7-.5.7h-2c-.8,0-.9-.2-1.2-.8l-7.6-16h-11.6l-2.6,16.2c0,.4-.2.5-.6.5h-2.1c-.4,0-.6-.1-.5-.6l6.8-42.7c0-.4.2-.5.6-.5,3.4-.2,7.9-.2,10.2-.2,13.5,0,17.7,1.3,15.7,13.7ZM262.3,157.1l-3.4,21.4h7.3c11.5,0,14.9-.5,16.6-10.6,1.6-10-1.7-10.9-13.2-10.9h-7.3Z"/>
          <path class="cls-5" d="M315.2,161l4.4,36.7c0,.5,0,.6-.5.6h-2.4c-.3,0-.4-.1-.4-.5l-1.8-14.2h-19.1l-6.3,14.2c-.2.4-.2.5-.6.5h-2.4c-.4,0-.5-.1-.3-.6l16.3-36.7c2.5-5.8,3.3-6.7,7.6-6.7,4.5,0,4.9.9,5.6,6.7ZM304.9,161.7l-8.3,18.8h17.5l-2.2-18.8c-.5-4-.6-4.6-2.9-4.6-2,0-2.4.7-4.1,4.6Z"/>
          <path class="cls-5" d="M360.3,154.5c.5,0,.7.2.3.8l-20.7,30.3-1.9,12.2c0,.3-.3.5-.6.5h-2.2c-.3,0-.5-.2-.5-.6l1.9-12.1-11.1-30.3c-.2-.5,0-.8.5-.8h2.4c.5,0,.6.1.8.6l9.7,26.6,18.1-26.7c.2-.3.5-.5.9-.5h2.4Z"/>
        </g>
        <path class="cls-1" d="M348.1,106.9c6,13.5,8.8,28.5-29.5,28.5s-20.5-3.6-28.1-7.4c-2-1,6.4-7.4,6.4-7.4,0,0,13.8,11.4,22.7,11.8,20.6,1,28.5-25.6,7.9-34.4-9.8-4.2-28-8.8-24.1-13.4,5.3-6.4,19.6-8.5,13.1-5.1-16.6,8.6,25.7,13.9,31.6,27.4Z"/>
        <path d="M388.9,115.2c0,7.9-6.9,13.8-13.8,19.7-.6.5-1.2,1-1.8,1.5-14.4,11.4-27.8,11.3-55.3,11.3s-29.2-3.9-41.3-10.7c-1.7-1,6.8-22.2,15.8-13.9,14.7,13.8,30.5,20.6,40.3,14.7,35.9-21.5,1-54.1-27.5-51.1-.3,0-.6,0-.9,0-14.7-.9-16.6,7-20.3,13.8-2,3.6-4.6,7-10,8.4-.7.2-1.4.3-2.2.5-9.3,1.5-2.1-33.1-4.9-42.3-1.9-6.1-31.5,1-31.5-5.9,0-10.1,3.3-19.3,8.9-27.3h0c1.1-1.6,2.3-3.1,3.6-4.6,2-2.4,4.3-4.6,6.7-6.7,18.2-15.7,46.2-23.6,70.2-19.4,31.3,5.5,50,23.6,60.1,46.7,4.9,11.3,7.8,23.7,9,36.4.6,5.5-5.1,23.8-5.1,28.9Z"/>
        <path class="cls-1" d="M313.2,88.7c-7.9-1.8-15-9-15.9-15.9-.7-5,2-7.9,6.9-11.8,4.7-3.8,26.3-14.1,26.3-14.1,0,0-5.9-5.9-14.3-6.4-14.6-.9-25.2,10.6-26.1,25.2-.9,16.6,11.8,25.4,29.5,28.4"/>
        <path d="M342.7,89.7c20.5,3.2,31.6,9.7,31.5,15.7-.3,12,2,17.7-.8,30.9-14.4,11.4-27.8,11.3-55.3,11.3s-29.2-3.9-41.3-10.7c-1.7-1,6.8-22.1,15.8-13.9,12.8,11.8,31.4,19.9,45.2,7.9,8.5-7.4,8.7-22.1,3.9-28.5-7.9-10.7-29-15.1-36.4-15.7"/>
        <path class="cls-3" d="M379.2,71l-18.3-5.9c-1.4-.4-2.7-1.6-3.4-3.1l-.7-1.3c-.8-1.5,0-3.5,1.5-3.5h18.5c3.5,0,6.3,3.6,6.3,8.1v1.9c0,2.6-1.9,4.4-3.8,3.8Z"/>
        <circle class="cls-3" cx="315.6" cy="66.5" r="22.1"/>
      </g>
    </g>
  </g>
</svg>